<?xml version="1.0" encoding="UTF-8" standalone="no"?>
<svg
   data-name="Layer 1"
   width="860.13137"
   height="551.74119"
   viewBox="0 0 860.13137 551.74119"
   version="1.1"
   id="svg138"
   sodipodi:docname="any_device.svg"
   inkscape:version="1.1 (c68e22c387, 2021-05-23)"
   xmlns:inkscape="http://www.inkscape.org/namespaces/inkscape"
   xmlns:sodipodi="http://sodipodi.sourceforge.net/DTD/sodipodi-0.dtd"
   xmlns="http://www.w3.org/2000/svg"
   xmlns:svg="http://www.w3.org/2000/svg">
  <defs
     id="defs142" />
  <sodipodi:namedview
     id="namedview140"
     pagecolor="#ffffff"
     bordercolor="#666666"
     borderopacity="1.0"
     inkscape:pageshadow="2"
     inkscape:pageopacity="0.0"
     inkscape:pagecheckerboard="0"
     showgrid="false"
     inkscape:zoom="1.2300447"
     inkscape:cx="190.64348"
     inkscape:cy="212.5939"
     inkscape:window-width="2560"
     inkscape:window-height="1017"
     inkscape:window-x="1912"
     inkscape:window-y="-8"
     inkscape:window-maximized="1"
     inkscape:current-layer="svg138" />
  <ellipse
     style="fill:#4d4d4d;stroke-width:1.41356"
     id="ellipse16997"
     cx="664.02582"
     cy="197.51747"
     rx="9.8815498"
     ry="9.9082861" />
  <path
     d="M973.93474,661.6294H756.58639A29.859,29.859,0,0,1,726.76056,631.804V288.961a29.85942,29.85942,0,0,1,29.82583-29.82582H973.93474a29.85941,29.85941,0,0,1,29.82582,29.82582V631.804A29.859,29.859,0,0,1,973.93474,661.6294Z"
     transform="translate(-169.93432 -174.1294)"
     fill="#e6e6e6"
     id="path2" />
  <path
     d="M977.53913,276.93253H756.17645a9.34834,9.34834,0,0,0-9.33681,9.33676V633.58254a9.35131,9.35131,0,0,0,9.33681,9.33681H977.53913a9.34833,9.34833,0,0,0,9.33675-9.33681V286.26929A9.34829,9.34829,0,0,0,977.53913,276.93253Z"
     transform="translate(-169.93432 -174.1294)"
     fill="#fff"
     id="path4"
     style="fill:#d8ffce;fill-opacity:1" />
  <path
     d="M761.899,259.13517a2.2844,2.2844,0,0,1,2.28171-2.28171h15.51565a2.28171,2.28171,0,1,1,0,4.56342H764.18066A2.2844,2.2844,0,0,1,761.899,259.13517Z"
     transform="translate(-169.93432 -174.1294)"
     fill="#e6e6e6"
     id="path6" />
  <path
     d="M787.45414,259.13517a2.2844,2.2844,0,0,1,2.28171-2.28171H805.2515a2.28171,2.28171,0,1,1,0,4.56342H789.73585A2.2844,2.2844,0,0,1,787.45414,259.13517Z"
     transform="translate(-169.93432 -174.1294)"
     fill="#e6e6e6"
     id="path8" />
  <path
     d="M940.78528,259.13517a2.2844,2.2844,0,0,1,2.28171-2.28171h15.51565a2.28171,2.28171,0,0,1,0,4.56342H943.067A2.2844,2.2844,0,0,1,940.78528,259.13517Z"
     transform="translate(-169.93432 -174.1294)"
     fill="#e6e6e6"
     id="path10" />
  <path
     d="M966.47418,307.5955H767.24135a1.64925,1.64925,0,0,1,0-3.2977H966.47418a1.64925,1.64925,0,0,1,0,3.2977Z"
     transform="translate(-169.93432 -174.1294)"
     fill="#cacaca"
     id="path22" />
  <ellipse
     cx="607.93675"
     cy="120.44623"
     rx="4.8462"
     ry="4.95421"
     fill="#3f3d56"
     id="ellipse24" />
  <ellipse
     cx="624.67818"
     cy="120.44623"
     rx="4.8462"
     ry="4.95421"
     fill="#3f3d56"
     id="ellipse26" />
  <ellipse
     cx="641.41961"
     cy="120.44623"
     rx="4.8462"
     ry="4.95421"
     fill="#3f3d56"
     id="ellipse28" />
  <path
     d="M958.68675,291.5355H947.84163a.82133.82133,0,0,0,0,1.64234h10.84512a.82133.82133,0,0,0,0-1.64234Z"
     transform="translate(-169.93432 -174.1294)"
     fill="#3f3d56"
     id="path30" />
  <path
     d="M958.68675,294.61792H947.84163a.82133.82133,0,0,0,0,1.64234h10.84512a.82133.82133,0,0,0,0-1.64234Z"
     transform="translate(-169.93432 -174.1294)"
     fill="#3f3d56"
     id="path32" />
  <path
     d="M958.68675,297.69629H947.84163a.82133.82133,0,0,0,0,1.64234h10.84512a.82133.82133,0,0,0,0-1.64234Z"
     transform="translate(-169.93432 -174.1294)"
     fill="#3f3d56"
     id="path34" />
  <path
     d="M635.43274,458.89724h-115.51a6.16309,6.16309,0,0,0-6.15377,6.16965v182.4718H641.60239V465.06689A6.16641,6.16641,0,0,0,635.43274,458.89724ZM578.06635,562.57549a13.70383,13.70383,0,0,1-13.63984-13.63975V527.8892a13.6398,13.6398,0,0,1,27.27959,0v21.04654a13.70363,13.70363,0,0,1-13.63975,13.63975Z"
     transform="translate(-169.93432 -174.1294)"
     fill="#e6e6e6"
     id="path36" />
  <path
     d="M513.37246,641.70214V659.307a3.44873,3.44873,0,0,0,3.44174,3.44164h121.743a3.459,3.459,0,0,0,3.44164-3.44164v-17.6049Z"
     transform="translate(-169.93432 -174.1294)"
     fill="#ccc"
     id="path38" />
  <g
     aria-label="24:59"
     transform="scale(0.99864983,1.001352)"
     id="text16995"
     style="font-weight:bold;font-size:56.5423px;line-height:1.25;font-family:'Arial Rounded MT Bold';-inkscape-font-specification:'Arial Rounded MT Bold,  Bold';fill:#135a00;stroke-width:1.41356">
    <path
       d="m 630.75089,256.91154 h 14.41167 q 2.15346,0 3.28541,0.88347 1.13195,0.88347 1.13195,2.40194 0,1.35282 -0.91108,2.29151 -0.88347,0.93869 -2.70564,0.93869 h -20.31989 q -2.07064,0 -3.2302,-1.13195 -1.15956,-1.15955 -1.15956,-2.70563 0,-0.99391 0.74544,-2.62282 0.74543,-1.65651 1.6289,-2.5952 3.67194,-3.80998 6.62605,-6.51562 2.95411,-2.73324 4.22411,-3.58911 2.2639,-1.60129 3.75476,-3.20259 1.51847,-1.6289 2.29151,-3.31302 0.80065,-1.71173 0.80065,-3.34064 0,-1.76694 -0.85587,-3.14737 -0.82825,-1.40804 -2.29151,-2.18108 -1.43564,-0.77304 -3.14737,-0.77304 -3.61672,0 -5.68736,3.17499 -0.27609,0.41413 -0.93869,2.2639 -0.635,1.84977 -1.46325,2.84368 -0.80065,0.99391 -2.37434,0.99391 -1.38043,0 -2.29151,-0.91109 -0.91108,-0.91108 -0.91108,-2.48477 0,-1.90498 0.85586,-3.97563 0.85587,-2.07064 2.53999,-3.75476 1.71173,-1.68412 4.30693,-2.70564 2.62281,-1.04912 6.1291,-1.04912 4.22411,0 7.20583,1.32521 1.9326,0.88347 3.39585,2.42955 1.46325,1.54608 2.2639,3.58911 0.82826,2.01543 0.82826,4.1965 0,3.42346 -1.71173,6.23953 -1.68412,2.78847 -3.45107,4.38976 -1.76695,1.57369 -5.93584,4.96954 -4.14128,3.39585 -5.68736,5.27323 -0.6626,0.74543 -1.35282,1.79456 z"
       id="path29710" />
    <path
       d="m 671.52872,259.92087 v -5.13519 h -13.85949 q -2.62281,0 -3.94802,-1.18717 -1.29761,-1.18717 -1.29761,-3.2302 0,-0.52456 0.19326,-1.04912 0.19326,-0.55217 0.57978,-1.13195 0.38652,-0.60739 0.80065,-1.15956 0.41413,-0.55217 1.02152,-1.35282 l 14.63253,-19.57446 q 1.43564,-1.9326 2.34672,-2.78846 0.93869,-0.88348 2.2363,-0.88348 4.19649,0 4.19649,4.80389 v 21.36902 h 1.18717 q 2.12586,0 3.39585,0.57978 1.2976,0.57977 1.2976,2.53998 0,1.6013 -1.04912,2.34673 -1.04912,0.71782 -3.14737,0.71782 h -1.68413 v 5.13519 q 0,2.12586 -0.93869,3.17498 -0.93869,1.02152 -2.51237,1.02152 -1.54608,0 -2.51238,-1.04913 -0.93869,-1.07673 -0.93869,-3.14737 z m -11.87168,-11.3195 h 11.87168 V 232.5608 Z"
       id="path29712" />
    <path
       d="m 694.22294,264.11737 q -1.71173,0 -2.95411,-1.10434 -1.24238,-1.10435 -1.24238,-3.09216 0,-1.68412 1.18716,-2.8989 1.18717,-1.21477 2.92651,-1.21477 1.73934,0 2.95411,1.21477 1.24239,1.18717 1.24239,2.8989 0,1.96021 -1.24239,3.09216 -1.21477,1.10434 -2.87129,1.10434 z m -4.19649,-26.53181 q 0,-1.96021 1.21477,-3.03694 1.24239,-1.07674 2.98172,-1.07674 1.68413,0 2.8989,1.10434 1.21478,1.07674 1.21478,3.00934 0,1.54607 -1.32521,2.84368 -1.32521,1.2976 -2.87129,1.2976 -1.68412,0 -2.8989,-1.24239 -1.21477,-1.24238 -1.21477,-2.89889 z"
       id="path29714" />
    <path
       d="m 729.20297,229.77234 h -13.11406 l -1.57369,8.94517 q 3.92042,-2.09825 7.23344,-2.09825 2.65042,0 4.94193,0.9939 2.31912,0.99391 4.05846,2.76086 1.73934,1.73934 2.73324,4.14128 0.99391,2.40194 0.99391,5.1628 0,4.00324 -1.79455,7.28865 -1.79456,3.28542 -5.19041,5.21802 -3.36824,1.9326 -7.78561,1.9326 -4.94193,0 -8.03409,-1.82217 -3.06455,-1.82216 -4.36215,-4.16889 -1.26999,-2.37433 -1.26999,-4.14128 0,-1.07673 0.88347,-2.04303 0.91108,-0.9663 2.2639,-0.9663 2.31912,0 3.45107,2.67803 1.10434,2.45716 2.98172,3.83759 1.87739,1.35282 4.1965,1.35282 2.12586,0 3.72716,-1.10435 1.60129,-1.10434 2.45716,-3.03694 0.88347,-1.93259 0.88347,-4.38975 0,-2.65042 -0.93869,-4.52781 -0.93869,-1.87738 -2.51238,-2.78846 -1.57368,-0.93869 -3.50628,-0.93869 -2.37434,0 -3.39585,0.57978 -1.02152,0.57978 -2.95412,2.04303 -1.90499,1.43565 -3.14737,1.43565 -1.35282,0 -2.40195,-0.9663 -1.04912,-0.99391 -1.04912,-2.23629 0,-0.13805 0.30369,-1.87739 l 2.31912,-13.22449 q 0.38652,-2.37433 1.43565,-3.45107 1.04912,-1.07673 3.42346,-1.07673 h 14.57731 q 4.30693,0 4.30693,3.28542 0,1.43564 -1.04912,2.31911 -1.04913,0.88348 -3.09216,0.88348 z"
       id="path29716" />
    <path
       d="m 759.6552,245.28834 q -1.82217,2.15347 -4.08607,3.25781 -2.23629,1.07673 -4.96954,1.07673 -2.5952,0 -4.8591,-0.99391 -2.23629,-1.02151 -3.89281,-2.81607 -1.6289,-1.82216 -2.51237,-4.2241 -0.88348,-2.42956 -0.88348,-5.07998 0,-2.84368 0.99391,-5.38366 0.99391,-2.5676 2.84368,-4.44498 1.84977,-1.87738 4.38976,-2.92651 2.56759,-1.04912 5.65975,-1.04912 3.5615,0 6.34997,1.2976 2.78846,1.2976 4.69345,3.78237 1.90499,2.45716 2.92651,6.21193 1.02151,3.75476 1.02151,8.50343 0,5.30084 -1.07673,9.35929 -1.07673,4.03085 -3.14738,6.79171 -2.04303,2.73324 -4.91432,4.08606 -2.87129,1.32521 -6.51561,1.32521 -3.58911,0 -6.23953,-1.35282 -2.65043,-1.38042 -4.03085,-3.39585 -1.38043,-2.04303 -1.38043,-3.92041 0,-1.15956 0.85587,-2.07064 0.85586,-0.91109 2.18107,-0.91109 1.21478,0 2.18108,0.69022 0.96629,0.6626 1.46325,2.01542 0.60739,1.65652 2.01542,2.67803 1.40804,0.99391 3.17498,0.99391 1.57369,0 2.98173,-0.80065 1.40803,-0.80065 2.40194,-2.2639 1.98782,-2.95411 2.37434,-10.43603 z m -0.635,-8.44821 q 0,-1.87739 -0.52456,-3.45107 -0.49696,-1.6013 -1.43565,-2.76086 -0.91108,-1.15956 -2.20868,-1.82216 -1.26999,-0.66261 -2.78846,-0.66261 -2.62282,0 -4.44498,2.2639 -1.82216,2.2363 -1.82216,5.93584 0,3.67194 1.82216,5.85301 1.82216,2.18108 4.61063,2.18108 1.71173,0 3.25781,-0.88348 1.57368,-0.91108 2.53998,-2.62281 0.99391,-1.71173 0.99391,-4.03084 z"
       id="path29718" />
  </g>
  <rect
     x="650.50293"
     y="280.66275"
     width="88.69249"
     height="7.4713259"
     rx="2.6440139"
     fill="#e6e6e6"
     id="rect17003"
     style="fill:#b3b3b3;stroke-width:0.543007" />
  <rect
     x="650.50293"
     y="297.64838"
     width="88.69249"
     height="7.4713259"
     rx="2.6440139"
     fill="#e6e6e6"
     id="rect17005"
     style="fill:#b3b3b3;stroke-width:0.543007" />
  <path
     d="M826.70694,174.1294H332.94669a16.02852,16.02852,0,0,0-16.003,16.00291v333.1915a16.01831,16.01831,0,0,0,16.003,16.00291H826.70694a16.0183,16.0183,0,0,0,16.003-16.00291V190.13231A16.02851,16.02851,0,0,0,826.70694,174.1294Z"
     transform="translate(-169.93432 -174.1294)"
     fill="#e6e6e6"
     id="path40" />
  <path
     d="M822.58545,185.68807H337.072a8.577,8.577,0,0,0-8.55836,8.57616v324.933a8.57312,8.57312,0,0,0,8.55836,8.55835H822.58545a8.57312,8.57312,0,0,0,8.55836-8.55835v-324.933A8.577,8.577,0,0,0,822.58545,185.68807Z"
     fill="#fff"
     id="path42"
     transform="translate(-169.93432 -174.1294)"
     style="fill:#daedf2;fill-opacity:1" />
  <path
     d="M798.17952,230.45658h-454.293a1.807,1.807,0,0,1,0-3.61318h454.293a1.807,1.807,0,0,1,0,3.61318Z"
     transform="translate(-169.93432 -174.1294)"
     fill="#cacaca"
     id="path46" />
  <ellipse
     cx="204.8765"
     cy="32.66644"
     rx="10.58751"
     ry="10.82345"
     fill="#3f3d56"
     id="ellipse48" />
  <ellipse
     cx="241.45152"
     cy="32.66644"
     rx="10.58751"
     ry="10.82345"
     fill="#3f3d56"
     id="ellipse50" />
  <ellipse
     cx="278.02654"
     cy="32.66644"
     rx="10.58751"
     ry="10.82345"
     fill="#3f3d56"
     id="ellipse52" />
  <path
     d="M776.15825,198.65509h-25.981a1.96761,1.96761,0,0,0,0,3.93445h25.981a1.96761,1.96761,0,0,0,0-3.93445Z"
     transform="translate(-169.93432 -174.1294)"
     fill="#3f3d56"
     id="path54" />
  <path
     d="M776.15825,206.03946h-25.981a1.96761,1.96761,0,0,0,0,3.93445h25.981a1.96761,1.96761,0,0,0,0-3.93445Z"
     transform="translate(-169.93432 -174.1294)"
     fill="#3f3d56"
     id="path56" />
  <path
     d="M776.15825,213.41413h-25.981a1.96761,1.96761,0,0,0,0,3.93445h25.981a1.96761,1.96761,0,0,0,0-3.93445Z"
     transform="translate(-169.93432 -174.1294)"
     fill="#3f3d56"
     id="path58" />
  <path
     d="M390.326,509.12653a53.04966,53.04966,0,0,1-3.34507,18.62906H337.072a8.57312,8.57312,0,0,1-8.55836-8.55835V456.42412a52.71645,52.71645,0,0,1,8.4338-.67613A53.37521,53.37521,0,0,1,390.326,509.12653Z"
     transform="translate(-169.93432 -174.1294)"
     fill="#522b47"
     id="path66" />
  <path
     d="M433.9109,405.74122h0V354.99783A29.36884,29.36884,0,0,0,404.54206,325.629H297.03532a29.36886,29.36886,0,0,0-29.36886,29.36886v278.382a29.36883,29.36883,0,0,0,29.36883,29.36883h107.5068a29.36878,29.36878,0,0,0,29.36878-29.36878V441.8612h0a1.8523,1.8523,0,0,0,1.8523-1.8523V407.59353A1.8523,1.8523,0,0,0,433.9109,405.74122Z"
     transform="translate(-169.93432 -174.1294)"
     fill="#e6e6e6"
     id="path72" />
  <path
     d="M427.66059,355.19941v277.98a21.91853,21.91853,0,0,1-21.69,21.92,1.92592,1.92592,0,0,1-.24006.01h-108.03a21.93206,21.93206,0,0,1-21.93-21.93v-277.98a21.932,21.932,0,0,1,21.93-21.93h13.11a10.42747,10.42747,0,0,0,9.65,14.36h61.59a10.43506,10.43506,0,0,0,9.64-14.36h14.04A21.932,21.932,0,0,1,427.66059,355.19941Z"
     transform="translate(-169.93432 -174.1294)"
     fill="#fff"
     id="path74"
     style="fill:#ffeeaa;fill-opacity:1" />
  <path
     d="M268.26056,434.129a2.50295,2.50295,0,0,1-2.5-2.5v-17a2.5,2.5,0,0,1,5,0v17A2.50294,2.50294,0,0,1,268.26056,434.129Z"
     transform="translate(-169.93432 -174.1294)"
     fill="#e6e6e6"
     id="path78" />
  <path
     d="M267.76056,401.129a2.50295,2.50295,0,0,1-2.5-2.5v-17a2.5,2.5,0,0,1,5,0v17A2.50294,2.50294,0,0,1,267.76056,401.129Z"
     transform="translate(-169.93432 -174.1294)"
     fill="#e6e6e6"
     id="path88" />
  <path
     d="M334.26056,336.129a2.50295,2.50295,0,0,1,2.5-2.5h17a2.5,2.5,0,0,1,0,5h-17A2.50295,2.50295,0,0,1,334.26056,336.129Z"
     transform="translate(-169.93432 -174.1294)"
     fill="#fff"
     id="path90" />
  <path
     d="M268.26056,463.129a2.50295,2.50295,0,0,1-2.5-2.5v-17a2.5,2.5,0,0,1,5,0v17A2.50294,2.50294,0,0,1,268.26056,463.129Z"
     transform="translate(-169.93432 -174.1294)"
     fill="#e6e6e6"
     id="path92" />
  <circle
     cx="193.32625"
     cy="161.99959"
     r="2.5"
     fill="#fff"
     id="circle94" />
  <path
     d="M1028.875,662.74206l-857.75.30734a1.19069,1.19069,0,0,1,0-2.38137l857.75-.30733a1.19068,1.19068,0,0,1,0,2.38136Z"
     transform="translate(-169.93432 -174.1294)"
     fill="#cacaca"
     id="path96" />
  <path
     d="M536.70774,400.23565l-4.51178.96682a25.97456,25.97456,0,0,0-.70141-5.60184,16.82138,16.82138,0,0,1-2.54029,6.29376l-25.87636,5.526-24.84317-26.21763c-.038-13.10875,7.24154-23.07069,20.29349-23.07069.78673,0,1.60187.03789,2.4265.11374a27.60423,27.60423,0,0,1,31.60142,21.69635C541.80713,389.051,538.45176,394.40633,536.70774,400.23565Z"
     transform="translate(-169.93432 -174.1294)"
     fill="#2f2e41"
     id="path98" />
  <polygon
     points="379.495 532.711 388.881 532.711 393.347 496.506 379.493 496.507 379.495 532.711"
     fill="#ffb6b6"
     id="polygon100" />
  <path
     d="M547.1016,702.21l14.83766-.8856v6.35709l14.10658,9.74251a3.97089,3.97089,0,0,1-2.25639,7.23856H556.12466l-3.04479-6.28815-1.18884,6.28815H545.2307Z"
     transform="translate(-169.93432 -174.1294)"
     fill="#2f2e41"
     id="path102" />
  <polygon
     points="269.531 522.494 277.695 527.126 299.445 497.841 287.396 491.005 269.531 522.494"
     fill="#ffb6b6"
     id="polygon104" />
  <path
     d="M439.7257,691.44757l13.34209,6.552-3.13719,5.52908,7.46132,15.43505a3.97088,3.97088,0,0,1-5.53467,5.18221l-15.36394-8.71746.45495-6.9717-4.13716,4.88243-5.79281-3.28683Z"
     transform="translate(-169.93432 -174.1294)"
     fill="#2f2e41"
     id="path106" />
  <path
     d="M584.12407,406.57845A8.31273,8.31273,0,0,0,577.424,417.422l-14.363,12.43183,5.426,10.571,20.03683-17.841a8.35777,8.35777,0,0,0-4.39963-16.00537Z"
     transform="translate(-169.93432 -174.1294)"
     fill="#ffb6b6"
     id="path108" />
  <path
     d="M569.66026,449.32863c-4.79112,7.25634-15.529,14.2643-31.46542,20.47709a6.83906,6.83906,0,0,1-5.49825-.17967c-6.014-2.73707-9.86837-12.91192-10.23019-13.89889l-11.64788-15.7126c-.20677-.22889-5.65354-6.4106-5.03056-12.48783a8.87668,8.87668,0,0,1,3.82279-6.36192c8.81731-6.53644,28.57855,16.165,31.14284,19.1833l12.89683-7.85786,9.39728-4.19259,7.586-9.23085L581.315,429.98732l-9.6065,15.28305A18.4177,18.4177,0,0,1,569.66026,449.32863Z"
     transform="translate(-169.93432 -174.1294)"
     fill="#2f2e41"
     id="path110" />
  <path
     d="M536.16214,477.16877s27.59842,43.96063,22.59842,48.96063-12.78065,6.313-12.78065,6.313l-17.21935-22.313Z"
     transform="translate(-169.93432 -174.1294)"
     fill="#2f2e41"
     id="path112" />
  <path
     d="M511.76056,417.1294l13.0073,8.79906a33.552,33.552,0,0,1,13.07194,38.27628l-3.66191,11.13047Z"
     transform="translate(-169.93432 -174.1294)"
     fill="#2f2e41"
     id="path114" />
  <polygon
     points="318.826 363 317.087 369.057 311.153 442.098 281.507 497.348 295.656 507.454 336.083 454.899 352.073 402.716 377.184 518.235 396.05 516.887 382.947 356.722 358.084 311.639 318.826 363"
     fill="#2f2e41"
     id="polygon116" />
  <path
     d="M509.54846,419.342,527.652,434.13714a24.65484,24.65484,0,0,1,8.18435,12.60337v0a24.65458,24.65458,0,0,1,.86527,6.901l-.53945,32.12721,16.59842,44.36063s-45,17-51,2S509.54846,419.342,509.54846,419.342Z"
     transform="translate(-169.93432 -174.1294)"
     fill="#522b47"
     id="path118"
     style="fill:#e3e2db" />
  <path
     d="M514.9631,539.91579c-22.48009,0-27.95872.16916-28.31367.09731l-.35559-.07186V526.42033l5.46672-24.29093c-.63882-7.54134-2.13556-17.48536-2-26,.49-30.77524-1.02286-60.83726-1.02286-60.83726l11.89811-10.9826L506.041,407.827l10.02641,10.026c11.6544,28.68151,20.90231,55.68351,20.96053,57.41842l.73265,29.858-3,12C521.18922,526.70953,533.58942,539.91579,514.9631,539.91579Z"
     transform="translate(-169.93432 -174.1294)"
     fill="#2f2e41"
     id="path120" />
  <polygon
     points="323.846 267.973 321.113 285.031 339.614 292.662 323.846 267.973"
     opacity="0.2"
     id="polygon122" />
  <circle
     cx="342.48363"
     cy="208.86652"
     r="18.11367"
     fill="#ffb6b6"
     id="circle124" />
  <path
     d="M482.06684,474.90258l0,0a33.27248,33.27248,0,0,0,39.93954,8.07283l3.94238-1.95109Z"
     transform="translate(-169.93432 -174.1294)"
     opacity="0.2"
     id="path126" />
  <path
     d="M545.09806,470.73289a8.31267,8.31267,0,0,0-12.74075.38476l-18.289-5.13434-5.83084,10.35316,25.92939,6.88793a8.35777,8.35777,0,0,0,10.93117-12.49151Z"
     transform="translate(-169.93432 -174.1294)"
     fill="#ffb6b6"
     id="path128" />
  <path
     d="M501.45435,482.2223c-8.69535.00086-20.46057-5.0974-34.42712-14.97187a6.839,6.839,0,0,1-2.88-4.687c-1.03022-6.52671,5.33612-15.35019,5.96031-16.196L476.8,427.98888c.077-.29868,2.23379-8.25037,7.64826-11.07957a8.87676,8.87676,0,0,1,7.41538-.316c10.3134,3.75553,2.26019,32.75562,1.15466,36.55876l13.66419,6.43148,8.67717,5.53112,11.88318,1.24319-3.22635,14.93118-18.04692.406A18.41807,18.41807,0,0,1,501.45435,482.2223Z"
     transform="translate(-169.93432 -174.1294)"
     fill="#2f2e41"
     id="path130" />
  <g
     aria-label="24:59"
     transform="scale(0.99864984,1.001352)"
     id="text14607"
     style="font-weight:bold;font-size:56.5423px;line-height:1.25;font-family:'Arial Rounded MT Bold';-inkscape-font-specification:'Arial Rounded MT Bold,  Bold';fill:#12125a;stroke-width:1.41356">
    <path
       d="m 346.63777,185.46601 h 14.41166 q 2.15346,0 3.28541,0.88348 1.13195,0.88347 1.13195,2.40194 0,1.35282 -0.91108,2.29151 -0.88347,0.93869 -2.70564,0.93869 h -20.31989 q -2.07064,0 -3.2302,-1.13195 -1.15955,-1.15956 -1.15955,-2.70564 0,-0.99391 0.74543,-2.62281 0.74543,-1.65651 1.6289,-2.5952 3.67194,-3.80998 6.62605,-6.51562 2.95412,-2.73325 4.22411,-3.58911 2.2639,-1.6013 3.75476,-3.20259 1.51847,-1.62891 2.29151,-3.31303 0.80065,-1.71173 0.80065,-3.34063 0,-1.76695 -0.85587,-3.14738 -0.82825,-1.40803 -2.29151,-2.18107 -1.43564,-0.77304 -3.14737,-0.77304 -3.61672,0 -5.68736,3.17498 -0.27609,0.41413 -0.93869,2.2639 -0.635,1.84977 -1.46325,2.84368 -0.80065,0.99391 -2.37434,0.99391 -1.38043,0 -2.29151,-0.91108 -0.91108,-0.91108 -0.91108,-2.48477 0,-1.90499 0.85587,-3.97563 0.85586,-2.07064 2.53998,-3.75476 1.71173,-1.68413 4.30693,-2.70564 2.62282,-1.04913 6.1291,-1.04913 4.22411,0 7.20583,1.32521 1.9326,0.88348 3.39585,2.42956 1.46326,1.54607 2.2639,3.58911 0.82826,2.01542 0.82826,4.1965 0,3.42346 -1.71173,6.23953 -1.68412,2.78846 -3.45107,4.38976 -1.76694,1.57368 -5.93584,4.96953 -4.14128,3.39586 -5.68736,5.27324 -0.6626,0.74543 -1.35281,1.79455 z"
       id="path29699" />
    <path
       d="m 387.41559,188.47534 v -5.13519 H 373.5561 q -2.62281,0 -3.94802,-1.18716 -1.2976,-1.18717 -1.2976,-3.2302 0,-0.52457 0.19326,-1.04913 0.19326,-0.55217 0.57978,-1.13195 0.38651,-0.60739 0.80064,-1.15956 0.41413,-0.55217 1.02152,-1.35282 l 14.63253,-19.57446 q 1.43564,-1.93259 2.34672,-2.78846 0.9387,-0.88347 2.2363,-0.88347 4.1965,0 4.1965,4.80389 v 21.36901 h 1.18716 q 2.12586,0 3.39585,0.57978 1.29761,0.57978 1.29761,2.53999 0,1.60129 -1.04913,2.34672 -1.04912,0.71782 -3.14737,0.71782 h -1.68412 v 5.13519 q 0,2.12586 -0.93869,3.17499 -0.9387,1.02151 -2.51238,1.02151 -1.54608,0 -2.51238,-1.04912 -0.93869,-1.07674 -0.93869,-3.14738 z m -11.87168,-11.3195 h 11.87168 v -16.04057 z"
       id="path29701" />
    <path
       d="m 410.10982,192.67184 q -1.71173,0 -2.95412,-1.10434 -1.24238,-1.10434 -1.24238,-3.09216 0,-1.68412 1.18716,-2.89889 1.18717,-1.21478 2.92651,-1.21478 1.73934,0 2.95411,1.21478 1.24239,1.18716 1.24239,2.89889 0,1.96021 -1.24239,3.09216 -1.21477,1.10434 -2.87128,1.10434 z m -4.1965,-26.53181 q 0,-1.96021 1.21477,-3.03694 1.24239,-1.07673 2.98173,-1.07673 1.68412,0 2.89889,1.10434 1.21478,1.07673 1.21478,3.00933 0,1.54608 -1.32521,2.84368 -1.32521,1.2976 -2.87129,1.2976 -1.68412,0 -2.8989,-1.24238 -1.21477,-1.24239 -1.21477,-2.8989 z"
       id="path29703" />
    <path
       d="m 445.08984,158.32681 h -13.11406 l -1.57369,8.94517 q 3.92042,-2.09825 7.23344,-2.09825 2.65042,0 4.94193,0.99391 2.31912,0.99391 4.05846,2.76085 1.73934,1.73934 2.73324,4.14128 0.99391,2.40195 0.99391,5.1628 0,4.00324 -1.79455,7.28866 -1.79456,3.28542 -5.19041,5.21801 -3.36824,1.9326 -7.78561,1.9326 -4.94193,0 -8.03409,-1.82216 -3.06455,-1.82217 -4.36215,-4.16889 -1.26999,-2.37434 -1.26999,-4.14128 0,-1.07674 0.88347,-2.04304 0.91109,-0.9663 2.2639,-0.9663 2.31912,0 3.45107,2.67803 1.10434,2.45716 2.98173,3.83759 1.87738,1.35282 4.19649,1.35282 2.12586,0 3.72716,-1.10434 1.60129,-1.10434 2.45716,-3.03694 0.88347,-1.9326 0.88347,-4.38976 0,-2.65042 -0.93869,-4.5278 -0.93869,-1.87738 -2.51238,-2.78847 -1.57368,-0.93869 -3.50628,-0.93869 -2.37434,0 -3.39585,0.57978 -1.02152,0.57978 -2.95412,2.04304 -1.90499,1.43564 -3.14737,1.43564 -1.35282,0 -2.40194,-0.9663 -1.04913,-0.99391 -1.04913,-2.23629 0,-0.13804 0.30369,-1.87738 l 2.31912,-13.2245 q 0.38652,-2.37433 1.43565,-3.45106 1.04912,-1.07674 3.42346,-1.07674 h 14.57731 q 4.30693,0 4.30693,3.28542 0,1.43564 -1.04912,2.31912 -1.04913,0.88347 -3.09216,0.88347 z"
       id="path29705" />
    <path
       d="m 475.54207,173.84281 q -1.82217,2.15347 -4.08607,3.25781 -2.23629,1.07674 -4.96954,1.07674 -2.5952,0 -4.8591,-0.99391 -2.23629,-1.02152 -3.8928,-2.81607 -1.62891,-1.82217 -2.51238,-4.22411 -0.88348,-2.42955 -0.88348,-5.07997 0,-2.84368 0.99391,-5.38367 0.99391,-2.56759 2.84368,-4.44498 1.84977,-1.87738 4.38976,-2.9265 2.5676,-1.04913 5.65975,-1.04913 3.56151,0 6.34997,1.29761 2.78846,1.2976 4.69345,3.78237 1.90499,2.45716 2.92651,6.21192 1.02151,3.75476 1.02151,8.50343 0,5.30084 -1.07673,9.3593 -1.07673,4.03085 -3.14737,6.7917 -2.04304,2.73325 -4.91433,4.08606 -2.87128,1.32521 -6.51561,1.32521 -3.58911,0 -6.23953,-1.35281 -2.65042,-1.38043 -4.03085,-3.39585 -1.38043,-2.04304 -1.38043,-3.92042 0,-1.15956 0.85587,-2.07064 0.85586,-0.91108 2.18107,-0.91108 1.21478,0 2.18108,0.69021 0.9663,0.66261 1.46325,2.01543 0.60739,1.65651 2.01542,2.67803 1.40804,0.9939 3.17499,0.9939 1.57368,0 2.98172,-0.80065 1.40803,-0.80064 2.40194,-2.2639 1.98782,-2.95411 2.37434,-10.43603 z m -0.635,-8.44821 q 0,-1.87738 -0.52456,-3.45107 -0.49696,-1.60129 -1.43565,-2.76085 -0.91108,-1.15956 -2.20868,-1.82217 -1.26999,-0.6626 -2.78846,-0.6626 -2.62281,0 -4.44498,2.2639 -1.82216,2.23629 -1.82216,5.93584 0,3.67193 1.82216,5.85301 1.82217,2.18107 4.61063,2.18107 1.71173,0 3.25781,-0.88347 1.57368,-0.91108 2.53998,-2.62281 0.99391,-1.71173 0.99391,-4.03085 z"
       id="path29707" />
  </g>
  <path
     d="M534.139,371.0797c-1.45024,1.88622-6.44538,3.55444-12.379,4.90038.00949-.12317.00949-.24639.00949-.36962a25.97447,25.97447,0,0,0-.7014-5.60184,16.82145,16.82145,0,0,1-2.5403,6.29375c-.09476.14221-.18952.28435-.29383.42655-5.09,1.00472-10.47376,1.782-14.69171,2.30327,2.90042,10.44536,14.01877,19.01392,12.815,25.36454l-32.57768,6.65389a25.53908,25.53908,0,0,0-.62556-7.86717,16.93373,16.93373,0,0,1-4.72034,8.95722l-2.76771.56869-.82463-4.06627c-7.14679-17.16559,2.81509-34.73875,19.13714-43.82868a19.84012,19.84012,0,0,1,12.56853-8.43591l4.06627-.83412A19.93427,19.93427,0,0,1,534.139,371.0797Z"
     transform="translate(-169.93432 -174.1294)"
     fill="#2f2e41"
     id="path132" />
  <path
     d="M611.96139,699.46589l.48173-10.83182a34.9833,34.9833,0,0,1,16.31744-4.13057c-7.837,6.4073-6.8576,18.75842-12.17087,27.37474a21.04264,21.04264,0,0,1-15.43077,9.72408l-6.55827,4.01542a35.26073,35.26073,0,0,1,7.43207-28.57312,34.06013,34.06013,0,0,1,6.25957-5.81618C609.863,695.37012,611.96139,699.46589,611.96139,699.46589Z"
     transform="translate(-169.93432 -174.1294)"
     fill="#f2f2f2"
     id="path134" />
  <path
     d="M627.861,725.8706H399.479a1.19069,1.19069,0,0,1,0-2.38137H627.861a1.19069,1.19069,0,1,1,0,2.38137Z"
     transform="translate(-169.93432 -174.1294)"
     fill="#cacaca"
     id="path136" />
  <g
     aria-label="24:59"
     id="text3248"
     style="font-weight:bold;font-size:40px;line-height:1.25;font-family:'Arial Rounded MT Bold';-inkscape-font-specification:'Arial Rounded MT Bold,  Bold';fill:#5d5900">
    <path
       d="m 138.31917,278.68121 h 10.19531 q 1.52344,0 2.32422,0.625 0.80078,0.625 0.80078,1.69922 0,0.95703 -0.64453,1.6211 -0.625,0.66406 -1.91406,0.66406 h -14.375 q -1.46485,0 -2.28516,-0.80078 -0.82031,-0.82032 -0.82031,-1.91407 0,-0.70312 0.52734,-1.85546 0.52735,-1.17188 1.15235,-1.83594 2.59765,-2.69531 4.6875,-4.60938 2.08984,-1.93359 2.98828,-2.53906 1.60156,-1.13281 2.65625,-2.26562 1.07422,-1.15235 1.62109,-2.34375 0.56641,-1.21094 0.56641,-2.36329 0,-1.25 -0.60547,-2.22656 -0.58594,-0.99609 -1.6211,-1.54297 -1.01562,-0.54687 -2.22656,-0.54687 -2.55859,0 -4.02344,2.24609 -0.19531,0.29297 -0.66406,1.60156 -0.44922,1.3086 -1.03515,2.01172 -0.56641,0.70313 -1.67969,0.70313 -0.97656,0 -1.6211,-0.64453 -0.64453,-0.64453 -0.64453,-1.75782 0,-1.34765 0.60547,-2.8125 0.60547,-1.46484 1.79688,-2.65625 1.21093,-1.1914 3.04687,-1.91406 1.85547,-0.74219 4.33594,-0.74219 2.98828,0 5.09766,0.9375 1.36718,0.625 2.40234,1.71875 1.03516,1.09375 1.60156,2.53907 0.58594,1.42578 0.58594,2.96875 0,2.42187 -1.21094,4.41406 -1.1914,1.97266 -2.4414,3.10547 -1.25,1.11328 -4.19922,3.51562 -2.92969,2.40235 -4.02344,3.73047 -0.46875,0.52735 -0.95703,1.26953 z"
       id="path29688" />
    <path
       d="m 167.16682,280.81012 v -3.63281 h -9.80468 q -1.85547,0 -2.79297,-0.83985 -0.91797,-0.83984 -0.91797,-2.28515 0,-0.3711 0.13672,-0.74219 0.13672,-0.39063 0.41015,-0.80078 0.27344,-0.42969 0.56641,-0.82031 0.29297,-0.39063 0.72266,-0.95704 l 10.35156,-13.84765 q 1.01562,-1.36719 1.66016,-1.97266 0.66406,-0.625 1.58203,-0.625 2.96875,0 2.96875,3.39844 v 15.11719 h 0.83984 q 1.50391,0 2.40234,0.41015 0.91797,0.41016 0.91797,1.79688 0,1.13281 -0.74218,1.66015 -0.74219,0.50782 -2.22657,0.50782 h -1.1914 v 3.63281 q 0,1.50391 -0.66407,2.24609 -0.66406,0.72266 -1.77734,0.72266 -1.09375,0 -1.77734,-0.74219 -0.66407,-0.76172 -0.66407,-2.22656 z m -8.39843,-8.00781 h 8.39843 v -11.34766 z"
       id="path29690" />
    <path
       d="m 183.22151,283.77887 q -1.21094,0 -2.08984,-0.78125 -0.87891,-0.78125 -0.87891,-2.1875 0,-1.19141 0.83985,-2.05078 0.83984,-0.85938 2.07031,-0.85938 1.23047,0 2.08984,0.85938 0.87891,0.83984 0.87891,2.05078 0,1.38672 -0.87891,2.1875 -0.85937,0.78125 -2.03125,0.78125 z m -2.96875,-18.76953 q 0,-1.38672 0.85938,-2.14844 0.8789,-0.76172 2.10937,-0.76172 1.19141,0 2.05078,0.78125 0.85938,0.76172 0.85938,2.12891 0,1.09375 -0.9375,2.01172 -0.9375,0.91797 -2.03125,0.91797 -1.19141,0 -2.05078,-0.87891 -0.85938,-0.87891 -0.85938,-2.05078 z"
       id="path29692" />
    <path
       d="m 207.96761,259.48199 h -9.27735 l -1.11328,6.32813 q 2.77344,-1.48438 5.11719,-1.48438 1.875,0 3.49609,0.70313 1.64063,0.70312 2.8711,1.95312 1.23046,1.23047 1.93359,2.92969 0.70312,1.69922 0.70312,3.65235 0,2.83203 -1.26953,5.15625 -1.26953,2.32421 -3.67187,3.6914 -2.38281,1.36719 -5.50781,1.36719 -3.4961,0 -5.6836,-1.28906 -2.16797,-1.28907 -3.08594,-2.94922 -0.89843,-1.67969 -0.89843,-2.92969 0,-0.76172 0.625,-1.44531 0.64453,-0.6836 1.60156,-0.6836 1.64062,0 2.44141,1.89454 0.78125,1.73828 2.10937,2.71484 1.32813,0.95703 2.96875,0.95703 1.50391,0 2.63672,-0.78125 1.13281,-0.78125 1.73828,-2.14844 0.625,-1.36718 0.625,-3.10547 0,-1.875 -0.66406,-3.20312 -0.66406,-1.32813 -1.77735,-1.97266 -1.11328,-0.66406 -2.48046,-0.66406 -1.67969,0 -2.40235,0.41016 -0.72265,0.41015 -2.08984,1.44531 -1.34766,1.01562 -2.22656,1.01562 -0.95704,0 -1.69922,-0.68359 -0.74219,-0.70312 -0.74219,-1.58203 0,-0.0977 0.21484,-1.32813 l 1.64063,-9.35546 q 0.27344,-1.67969 1.01562,-2.44141 0.74219,-0.76172 2.42188,-0.76172 h 10.3125 q 3.04687,0 3.04687,2.32422 0,1.01562 -0.74218,1.64062 -0.74219,0.625 -2.1875,0.625 z"
       id="path29694" />
    <path
       d="m 229.51057,270.45856 q -1.28906,1.52343 -2.89062,2.30468 -1.58203,0.76172 -3.51563,0.76172 -1.83593,0 -3.4375,-0.70312 -1.58203,-0.72266 -2.7539,-1.99219 -1.15235,-1.28906 -1.77735,-2.98828 -0.625,-1.71875 -0.625,-3.59375 0,-2.01172 0.70313,-3.80859 0.70312,-1.81641 2.01172,-3.14454 1.30859,-1.32812 3.10547,-2.07031 1.8164,-0.74219 4.0039,-0.74219 2.51953,0 4.49219,0.91797 1.97266,0.91797 3.32031,2.67578 1.34766,1.73829 2.07032,4.39454 0.72265,2.65625 0.72265,6.01562 0,3.75 -0.76172,6.62109 -0.76172,2.85157 -2.22656,4.80469 -1.44531,1.9336 -3.47656,2.89063 -2.03125,0.9375 -4.60938,0.9375 -2.53906,0 -4.41406,-0.95703 -1.875,-0.97657 -2.85156,-2.40235 -0.97656,-1.44531 -0.97656,-2.77344 0,-0.82031 0.60546,-1.46484 0.60547,-0.64453 1.54297,-0.64453 0.85938,0 1.54297,0.48828 0.6836,0.46875 1.03516,1.42578 0.42969,1.17188 1.42578,1.89453 0.99609,0.70313 2.24609,0.70313 1.11328,0 2.10938,-0.56641 0.99609,-0.5664 1.69922,-1.60156 1.40625,-2.08984 1.67968,-7.38281 z m -0.44921,-5.97657 q 0,-1.32812 -0.3711,-2.4414 -0.35156,-1.13281 -1.01562,-1.95313 -0.64453,-0.82031 -1.5625,-1.28906 -0.89844,-0.46875 -1.97266,-0.46875 -1.85547,0 -3.14453,1.60156 -1.28906,1.58203 -1.28906,4.19922 0,2.59766 1.28906,4.14063 1.28906,1.54297 3.26172,1.54297 1.21094,0 2.30469,-0.625 1.11328,-0.64454 1.79687,-1.85547 0.70313,-1.21094 0.70313,-2.85157 z"
       id="path29696" />
  </g>
  <circle
     style="fill:#4d4d4d"
     id="circle12148"
     cx="162.49409"
     cy="236.47516"
     r="7" />
  <circle
     style="fill:#4d4d4d"
     id="circle12508"
     cx="162.49409"
     cy="236.47516"
     r="7" />
  <circle
     style="fill:#ffffff"
     id="circle12534"
     cx="182.494"
     cy="236.47516"
     r="7" />
  <circle
     style="fill:#ffffff"
     id="circle12682"
     cx="202.494"
     cy="236.47516"
     r="7" />
  <rect
     x="152.91463"
     y="295.21558"
     width="62.828957"
     height="5.2783375"
     rx="1.8729954"
     fill="#e6e6e6"
     id="rect12868"
     style="stroke-width:0.384142;fill:#b3b3b3" />
  <rect
     x="152.91463"
     y="307.21558"
     width="62.828957"
     height="5.2783375"
     rx="1.8729954"
     fill="#e6e6e6"
     id="rect12870"
     style="stroke-width:0.384142;fill:#b3b3b3" />
  <ellipse
     style="fill:#4d4d4d;stroke-width:1.41356"
     id="circle14609"
     cx="380.29626"
     cy="125.97535"
     rx="9.8815498"
     ry="9.9082861" />
  <ellipse
     style="fill:#ffffff;stroke-width:1.41356"
     id="circle14611"
     cx="408.52914"
     cy="125.97535"
     rx="9.8815498"
     ry="9.9082861" />
  <ellipse
     style="fill:#ffffff;stroke-width:1.41356"
     id="circle14613"
     cx="436.76215"
     cy="125.97535"
     rx="9.8815498"
     ry="9.9082861" />
  <rect
     x="366.77341"
     y="209.12062"
     width="88.69249"
     height="7.4713259"
     rx="2.6440139"
     fill="#e6e6e6"
     id="rect14615"
     style="fill:#b3b3b3;stroke-width:0.543007" />
  <rect
     x="366.77341"
     y="226.10625"
     width="88.69249"
     height="7.4713259"
     rx="2.6440139"
     fill="#e6e6e6"
     id="rect14617"
     style="fill:#b3b3b3;stroke-width:0.543007" />
  <ellipse
     style="fill:#ffffff;stroke-width:1.41356"
     id="ellipse16999"
     cx="692.25867"
     cy="197.51747"
     rx="9.8815498"
     ry="9.9082861" />
  <ellipse
     style="fill:#ffffff;stroke-width:1.41356"
     id="ellipse17001"
     cx="720.4917"
     cy="197.51747"
     rx="9.8815498"
     ry="9.9082861" />
</svg>
