<?xml version="1.0" encoding="UTF-8" standalone="no"?>
<svg
   data-name="Layer 1"
   width="717.67003"
   height="453.96431"
   viewBox="0 0 717.67003 453.96431"
   version="1.1"
   id="svg142"
   sodipodi:docname="intuitive-2.svg"
   inkscape:version="1.1 (c68e22c387, 2021-05-23)"
   xmlns:inkscape="http://www.inkscape.org/namespaces/inkscape"
   xmlns:sodipodi="http://sodipodi.sourceforge.net/DTD/sodipodi-0.dtd"
   xmlns="http://www.w3.org/2000/svg"
   xmlns:svg="http://www.w3.org/2000/svg">
  <defs
     id="defs146" />
  <sodipodi:namedview
     id="namedview144"
     pagecolor="#ffffff"
     bordercolor="#666666"
     borderopacity="1.0"
     inkscape:pageshadow="2"
     inkscape:pageopacity="0.0"
     inkscape:pagecheckerboard="0"
     showgrid="false"
     inkscape:zoom="2.9484302"
     inkscape:cx="255.72931"
     inkscape:cy="150.41903"
     inkscape:window-width="2560"
     inkscape:window-height="1017"
     inkscape:window-x="1912"
     inkscape:window-y="-8"
     inkscape:window-maximized="1"
     inkscape:current-layer="svg142" />
  <path
     d="m 271.9864,81.47656 a 3.82674,3.82674 0 0 1 -4.314,1.25745 5.82854,5.82854 0 0 1 -0.6787,-0.24764 28.82552,28.82552 0 0 0 -0.36725,-7.98934 21.36236,21.36236 0 0 1 -1.63966,6.57017 8.91079,8.91079 0 0 1 -1.75993,-2.51274 22.42528,22.42528 0 0 1 -1.60307,-6.0463 c -1.20439,-7.0881 -2.39281,-14.46206 -0.42756,-21.389 2.87885,-10.119 11.95723,-17.39344 15.74893,-27.21118 l 1.86811,-1.677 c 3.19777,5.44543 3.33934,12.212 2.03576,18.38674 -1.29657,6.187 -3.90949,11.99371 -5.97512,17.96023 -2.06563,5.96652 -3.61313,12.31309 -2.6548,18.55641 0.22032,1.47003 0.55634,3.08576 -0.23271,4.3422 z"
     fill="#2f2e41"
     id="path2" />
  <polygon
     points="230.469 157.098 218.295 212.779 271.469 230.098 263.65 157.098 230.469 157.098"
     fill="#ffb6b6"
     id="polygon4"
     style="fill:#f2d2b6;fill-opacity:1" />
  <path
     d="M861.31381,690.55887h24.09571V580.09012A107.65288,107.65288,0,0,0,777.87876,472.55887H553.94028A107.65288,107.65288,0,0,0,446.40952,580.09012V690.55887h24.0957V615.09012A108.65356,108.65356,0,0,1,579.036,506.55887H752.78305A108.65356,108.65356,0,0,1,861.31381,615.09012Z"
     transform="translate(-255.61478 -237.96119)"
     fill="#e6e6e6"
     id="path6"
     style="fill:#eee9e7;fill-opacity:1" />
  <path
     d="M568.509,632.7673l-25.68043-7.775a88.4837,88.4837,0,0,1-2.50888-20.963,8.39912,8.39912,0,0,1,13.815-6.35513c13.77338,11.81381,33.94829,18.11782,46.96791,31.58028a52.07341,52.07341,0,0,1,13.888,42.946l5.621,18.18083a87.2586,87.2586,0,0,1-63.97667-35.28461,84.28716,84.28716,0,0,1-10.12173-18.565C557.40487,635.29616,568.509,632.7673,568.509,632.7673Z"
     transform="translate(-255.61478 -237.96119)"
     fill="#f2f2f2"
     id="path8"
     style="fill:#8daa9d;fill-opacity:1" />
  <path
     d="M635.438,662.5404l13.09791-3.96554q.02533-.10428.0502-.2087a8.409,8.409,0,0,0-12.48265-9.09359c-5.94563,3.532-12.54779,6.57335-17.28929,11.47613a26.55922,26.55922,0,0,0-7.08337,21.904l-2.86689,9.27285a44.50485,44.50485,0,0,0,32.6303-17.99636,42.98864,42.98864,0,0,0,5.16243-9.46881C641.10146,663.83021,635.438,662.5404,635.438,662.5404Z"
     transform="translate(-255.61478 -237.96119)"
     fill="#f2f2f2"
     id="path10"
     style="fill:#8daa9d;fill-opacity:1" />
  <path
     d="M741.46337,391.0911H690.45778a2.72143,2.72143,0,0,0-2.71731,2.72433v80.57381h56.44722V393.81543A2.7229,2.7229,0,0,0,741.46337,391.0911Zm-25.3312,45.78106a6.05117,6.05117,0,0,1-6.02292-6.02289v-9.29349a6.02291,6.02291,0,0,1,12.04581,0v9.29349a6.05109,6.05109,0,0,1-6.02289,6.02289Z"
     transform="translate(-255.61478 -237.96119)"
     fill="#3f3d56"
     id="path12" />
  <path
     d="M825.92405,265.34656H607.895a7.07769,7.07769,0,0,0-7.06643,7.06638V419.53985a7.07318,7.07318,0,0,0,7.06643,7.06638h218.029a7.07318,7.07318,0,0,0,7.06643-7.06638V272.41294A7.07769,7.07769,0,0,0,825.92405,265.34656Z"
     transform="translate(-255.61478 -237.96119)"
     fill="#3f3d56"
     id="path14" />
  <path
     d="M824.10413,270.4505H609.71662a3.78733,3.78733,0,0,0-3.7791,3.787V417.71769a3.78562,3.78562,0,0,0,3.7791,3.7791H824.10413a3.78562,3.78562,0,0,0,3.7791-3.7791V274.23747A3.78733,3.78733,0,0,0,824.10413,270.4505Z"
     fill="#fff"
     id="path16"
     style="fill:#fbf5f3;fill-opacity:1"
     transform="translate(-255.61478 -237.96119)" />
  <path
     d="M687.56538,471.812v7.77377a1.52285,1.52285,0,0,0,1.51976,1.51972h53.75792a1.52739,1.52739,0,0,0,1.51972-1.51972V471.812Z"
     transform="translate(-255.61478 -237.96119)"
     fill="#3f3d56"
     id="path18" />
  <path
     d="M782.34508,483.81055H654.7962a2.34634,2.34634,0,0,1-2.296-2.82966l1.97916-9.39973a2.35648,2.35648,0,0,1,2.29564-1.86291H780.36631a2.35648,2.35648,0,0,1,2.29565,1.86291l1.97915,9.39973a2.34634,2.34634,0,0,1-2.296,2.82966Z"
     transform="translate(-255.61478 -237.96119)"
     fill="#3f3d56"
     id="path20" />
  <rect
     x="402.06594"
     y="233.44964"
     width="3.92838"
     height="2.35703"
     rx="0.48819"
     fill="#e6e6e6"
     id="rect22" />
  <rect
     x="409.92271"
     y="233.44964"
     width="3.92838"
     height="2.35703"
     rx="0.48819"
     fill="#e6e6e6"
     id="rect24" />
  <rect
     x="417.77947"
     y="233.44964"
     width="3.92838"
     height="2.35703"
     rx="0.48819"
     fill="#e6e6e6"
     id="rect26" />
  <rect
     x="425.63623"
     y="233.44964"
     width="3.92838"
     height="2.35703"
     rx="0.48819"
     fill="#e6e6e6"
     id="rect28" />
  <rect
     x="433.493"
     y="233.44964"
     width="3.92838"
     height="2.35703"
     rx="0.48819"
     fill="#e6e6e6"
     id="rect30" />
  <rect
     x="441.34976"
     y="233.44964"
     width="3.92838"
     height="2.35703"
     rx="0.48819"
     fill="#e6e6e6"
     id="rect32" />
  <rect
     x="449.20652"
     y="233.44964"
     width="3.92838"
     height="2.35703"
     rx="0.48819"
     fill="#e6e6e6"
     id="rect34" />
  <rect
     x="457.06329"
     y="233.44964"
     width="3.92838"
     height="2.35703"
     rx="0.48819"
     fill="#e6e6e6"
     id="rect36" />
  <rect
     x="464.92005"
     y="233.44964"
     width="3.92838"
     height="2.35703"
     rx="0.48819"
     fill="#e6e6e6"
     id="rect38" />
  <rect
     x="472.77682"
     y="233.44964"
     width="3.92838"
     height="2.35703"
     rx="0.48819"
     fill="#e6e6e6"
     id="rect40" />
  <rect
     x="480.63358"
     y="233.44964"
     width="3.92838"
     height="2.35703"
     rx="0.48819"
     fill="#e6e6e6"
     id="rect42" />
  <rect
     x="488.49034"
     y="233.44964"
     width="3.92838"
     height="2.35703"
     rx="0.48819"
     fill="#e6e6e6"
     id="rect44" />
  <rect
     x="496.34711"
     y="233.44964"
     width="3.92838"
     height="2.35703"
     rx="0.48819"
     fill="#e6e6e6"
     id="rect46" />
  <rect
     x="504.20387"
     y="233.44964"
     width="3.92838"
     height="2.35703"
     rx="0.48819"
     fill="#e6e6e6"
     id="rect48" />
  <rect
     x="512.06064"
     y="233.44964"
     width="3.92838"
     height="2.35703"
     rx="0.48819"
     fill="#e6e6e6"
     id="rect50" />
  <rect
     x="519.9174"
     y="233.44964"
     width="3.92838"
     height="2.35703"
     rx="0.48819"
     fill="#e6e6e6"
     id="rect52" />
  <rect
     x="401.9731"
     y="237.37802"
     width="3.92838"
     height="2.35703"
     rx="0.48819"
     fill="#e6e6e6"
     id="rect54" />
  <rect
     x="409.82987"
     y="237.37802"
     width="3.92838"
     height="2.35703"
     rx="0.48819"
     fill="#e6e6e6"
     id="rect56" />
  <rect
     x="417.68663"
     y="237.37802"
     width="3.92838"
     height="2.35703"
     rx="0.48819"
     fill="#e6e6e6"
     id="rect58" />
  <rect
     x="425.54339"
     y="237.37802"
     width="3.92838"
     height="2.35703"
     rx="0.48819"
     fill="#e6e6e6"
     id="rect60" />
  <rect
     x="433.40016"
     y="237.37802"
     width="3.92838"
     height="2.35703"
     rx="0.48819"
     fill="#e6e6e6"
     id="rect62" />
  <rect
     x="441.25692"
     y="237.37802"
     width="3.92838"
     height="2.35703"
     rx="0.48819"
     fill="#e6e6e6"
     id="rect64" />
  <rect
     x="449.11369"
     y="237.37802"
     width="3.92838"
     height="2.35703"
     rx="0.48819"
     fill="#e6e6e6"
     id="rect66" />
  <rect
     x="456.97045"
     y="237.37802"
     width="3.92838"
     height="2.35703"
     rx="0.48819"
     fill="#e6e6e6"
     id="rect68" />
  <rect
     x="464.82721"
     y="237.37802"
     width="3.92838"
     height="2.35703"
     rx="0.48819"
     fill="#e6e6e6"
     id="rect70" />
  <rect
     x="472.68398"
     y="237.37802"
     width="3.92838"
     height="2.35703"
     rx="0.48819"
     fill="#e6e6e6"
     id="rect72" />
  <rect
     x="480.54074"
     y="237.37802"
     width="3.92838"
     height="2.35703"
     rx="0.48819"
     fill="#e6e6e6"
     id="rect74" />
  <rect
     x="488.39751"
     y="237.37802"
     width="3.92838"
     height="2.35703"
     rx="0.48819"
     fill="#e6e6e6"
     id="rect76" />
  <rect
     x="496.25427"
     y="237.37802"
     width="3.92838"
     height="2.35703"
     rx="0.48819"
     fill="#e6e6e6"
     id="rect78" />
  <rect
     x="504.11103"
     y="237.37802"
     width="3.92838"
     height="2.35703"
     rx="0.48819"
     fill="#e6e6e6"
     id="rect80" />
  <rect
     x="511.9678"
     y="237.37802"
     width="3.92838"
     height="2.35703"
     rx="0.48819"
     fill="#e6e6e6"
     id="rect82" />
  <rect
     x="519.82456"
     y="237.37802"
     width="3.92838"
     height="2.35703"
     rx="0.48819"
     fill="#e6e6e6"
     id="rect84" />
  <rect
     x="439.68557"
     y="242.09208"
     width="31.42706"
     height="2.35703"
     rx="0.48819"
     fill="#e6e6e6"
     id="rect86" />
  <polygon
     points="183.897 368.973 174.522 374.778 146.903 340.828 160.739 332.262 183.897 368.973"
     fill="#ffb6b6"
     id="polygon90"
     style="fill:#f2d2b6;fill-opacity:1" />
  <path
     d="M447.60543,619.06017l-7.54133,3.36653-4.5245-6.519-.26914,8.65893-20.0014,8.92883a4.9238,4.9238,0,0,1-6.21365-7.05552l11.04809-18.1615-3.21326-7.198,17.248-6.49708Z"
     transform="translate(-255.61478 -237.96119)"
     fill="#2f2e41"
     id="path92"
     style="fill:#c1aeae;fill-opacity:1" />
  <path
     d="M413.24955,600.40319l15.8338-15.34432c-11.7637-29.02906-12.70376-47.02215-29.01206-82.13088,38.693,7.91409,66.35622,7.433,98.35619.33742,10.83323-2.3646,38.78551-23.95594,36.48735-35.02685q-.16112-.77624-.3807-1.538c-3.43482-11.7114-1.01609-29.64574-8.45078-42.64173-13.75489-5.18582-34.65268,12.32556-51,23-7.88255,5.14713-2.11233,12.1612-8,14l-22.569,7.32613-55.3725-8.943a20.51148,20.51148,0,0,0-23.37624,17.35929q-.14055.9018-.20361,1.81341c2.54779,14.10343,5.20366,27.83673,8.063,40.87333.923,4.20807-.6352,12.27539,2.8357,12.39545s2.07272,8.46395,3.15368,12.54322C386.2692,569.54028,390.47748,581.69383,413.24955,600.40319Z"
     transform="translate(-255.61478 -237.96119)"
     fill="#2f2e41"
     id="path94"
     style="fill:#c3b1b1;fill-opacity:1" />
  <polygon
     points="127.329 429.745 117.562 424.647 133.015 383.711 147.43 391.235 127.329 429.745"
     fill="#ffb6b6"
     id="polygon96"
     style="fill:#f2d2b6;fill-opacity:1" />
  <path
     d="M381.31592,637.14483l15.6612,10.78289c19.19456-27.75961,31.65753-64.854,40.93905-106.36,36.13851-15.76472,67.76063-33.80089,89.79648-57.99314a20.9147,20.9147,0,0,0-1.20931-29.095q-.5784-.5422-1.196-1.03885c-9.54471-7.60285-30.74283-3.22816-44.29181-9.58275l-24.204,33.49961,2.78211,7.80252-8.41994,4.099-7.1092,3.46086-8.13813,3.96175L409.24825,509.669a20.4837,20.4837,0,0,0-9.089,27.62925q.40434.81821.87758,1.59992l-9.908,49.36015s2.72631,8.59307-1.56348,7.789-1.95215,9.72532-1.95215,9.72532Z"
     transform="translate(-255.61478 -237.96119)"
     fill="#2f2e41"
     id="path98"
     style="fill:#c8b7b7" />
  <path
     d="M377.029,690.26656l-7.32146-3.82115,2.30077-7.5944-6.95466,5.16548-19.41828-10.13462a4.9238,4.9238,0,0,1,1.67253-9.25162l21.09632-2.61639,3.64718-6.98813,15.80243,9.48616Z"
     transform="translate(-255.61478 -237.96119)"
     fill="#2f2e41"
     id="path100"
     style="fill:#c8b7b7" />
  <path
     d="M590.50644,475.66465l-11.42309-27.60578-9,5,5.43524,28.0821a10.0012,10.0012,0,1,0,14.98785-5.47632Z"
     transform="translate(-255.61478 -237.96119)"
     fill="#ffb6b6"
     id="path102"
     style="fill:#f2d2b6;fill-opacity:1" />
  <path
     d="M398.82273,257.36811l17.381,24.29955,7.633-6.90918L412.18,248.63825a10.0012,10.0012,0,1,0-13.35723,8.72986Z"
     transform="translate(-255.61478 -237.96119)"
     fill="#ffb6b6"
     id="path104"
     style="fill:#f2d2b6;fill-opacity:1" />
  <path
     d="M477.31168,411.38205c-11.2735,17.48627,30.02795,55.58585,51.77167,46.67682,3.80743-1.56,16.90438-6.71266,7.95219-13.85633s1.03792.851,1.274-3.79932c.15787-3.109-2.24924-9.9292.26227-9.63677s3.953-6.97133-1.51673-8.82157a10.61794,10.61794,0,0,1-7-9c-.523-19.16651,5.96782-39.17735,5.96782-39.17735l26.49793,67.73493s-.19573,11.71851,3.18337,8.13746,3.13322,8.00923,3.13322,8.00923,5.02458,3.50661,2.13523,5.45816,3.11066,7.95156,3.11066,7.95156l14-1s-.21919-10.4-2.6096-12.7-1.21623-5.919-1.21623-5.919-4.92825-4.58417-2.05121-9.98259-20.951-101.96148-20.951-101.96148a25.7199,25.7199,0,0,0-18.366-19.62039l-15.12093-4.16334-2.685-10.6532H503.792l-3.70866,7-34-3s-33.64257-30.60991-32-33-3.57255-7.98576-3.57255-7.98576-4.45387-1.45771-1.94066-2.236-2.23723-2.57768-2.23723-2.57768-4.39964-1.1561-2.3246-2.67834-6.925-2.52224-6.925-2.52224l-11.67717,9.52756,2.3601,4.00191s-1.439,5.44938.439,3.46,2.23156,3.78393,2.23156,3.78393.95909,6.32194,6.64648,8.22664,10,20,10,20l48,40c-7.31055,8.39115-5.5705,17.166.90564,26.14173Z"
     transform="translate(-255.61478 -237.96119)"
     fill="#6c63ff"
     id="path106"
     style="fill:#eee9e7;fill-opacity:1" />
  <circle
     cx="258.34259"
     cy="46.963821"
     r="23.0557"
     fill="#ffb6b6"
     id="circle108"
     style="fill:#f2d2b6;fill-opacity:1" />
  <path
     d="m 278.46857,40.09768 c -0.59,0.17 -9.25,1.3 -13,2 -3.68,0.69 -4.32,-4 -7.33,-3.12 a 0.1266,0.1266 0 0 0 -0.01,-0.06 28.34378,28.34378 0 0 0 -2.37,-7.17 21.17806,21.17806 0 0 1 0.17005,6.6 0.98419,0.98419 0 0 1 -0.02,0.17 c -0.01,0.1 -0.03,0.19 -0.04,0.29 -3.18,-1.4 -5.2,-0.15 -7.4,0.29 -2.46,0.49 -4.38,1.57 -3,10 2.83,17.34 17.55,23.53 15,35 -0.5,2.27 -1.76,5.11 -3.34,5.82 a 28.34378,28.34378 0 0 0 -2.37,-7.17 21.17806,21.17806 0 0 1 0.17005,6.6 c -2.45,-2.65 -4.22,-11.91 -12.46,-19.25 -2.03,-1.8 -12.2,-12.48 -13.42,-15 a 32.13615,32.13615 0 0 1 0.54,6.11 29.41586,29.41586 0 0 1 -0.28,4.1 1.15145,1.15145 0 0 1 -0.03,0.26 c -0.01,0.16 -0.04,0.3 -0.06,0.45 -0.02,0.17 -0.05,0.33 -0.08,0.5 -3.33,-0.48 -6.28,-1.06 -7.67,-2.42 -6.76,-6.58 1.49,-19.4 6,-31 6.45,-16.61 25.18,-18.82 27,-19 8.02,-0.81 21.57,0.91 26,10 3.09987,6.37 1.11989,15.09998 -2.0001,16 z"
     fill="#2f2e41"
     id="path110"
     style="fill:#432b0f;fill-opacity:1" />
  <path
     d="M 229.85359,43.84695 246.5547,17.86667 a 25.61246,25.61246 0 0 0 -13.18811,-3.4596 16.41918,16.41918 0 0 0 -12.10913,5.71143 c -3.41095,4.2392 -3.99622,10.23181 -2.7182,15.52069 0.44134,1.82662 8.84596,-4.60038 6.84596,-1.60038 -1.64185,2.34882 -4.3266,12.2215 -5,15 -1.08368,4.4718 -4.06343,9.06211 -1.40907,12.82053 3.13885,4.44446 8.74,6.65363 14.17651,6.878 5.43651,0.22437 10.7876,-1.28223 15.95416,-2.98871 z"
     fill="#2f2e41"
     id="path112"
     style="fill:#442b0e;fill-opacity:1" />
  <path
     d="m 236.27081,42.82229 a 1.00011,1.00011 0 0 1 -0.27295,-1.96191 c 0.26221,-0.43262 0.15479,-2.25342 0.0684,-3.72461 -0.32519,-5.52393 -0.86963,-14.769 8.106,-21.00977 a 0.99976261,0.99976261 0 0 1 1.1416,1.6416 c -8.05469,5.60108 -7.57129,13.81543 -7.251,19.25049 0.18262,3.10742 0.315,5.352 -1.56982,5.7793 a 0.99351,0.99351 0 0 1 -0.22219,0.0249 z"
     fill="#6c63ff"
     id="path114"
     style="fill:#eee9e7;fill-opacity:1" />
  <path
     d="M255.61478,689.91176a1.18648,1.18648,0,0,0,1.18292,1.19H972.09481a1.19,1.19,0,0,0,0-2.38h-715.29a1.18649,1.18649,0,0,0-1.19,1.183Z"
     transform="translate(-255.61478 -237.96119)"
     fill="#ccc"
     id="path116" />
  <rect
     style="opacity:1;fill:#eee9e7;fill-opacity:1;stroke:#eee9e7;stroke-width:1.18716;stroke-linejoin:round;stroke-miterlimit:4;stroke-dasharray:none;stroke-opacity:1"
     id="rect1904"
     width="206.34503"
     height="64.251152"
     x="358.39737"
     y="75.477303" />
  <rect
     style="opacity:1;fill:#eee9e7;fill-opacity:1;stroke:#eee9e7;stroke-width:1.18716;stroke-linejoin:round;stroke-miterlimit:4;stroke-dasharray:none;stroke-opacity:1"
     id="rect4891"
     width="206.34503"
     height="64.251152"
     x="356.02304"
     y="77.851616" />
  <path
     style="fill:#7b0828;fill-opacity:1;stroke:none;stroke-width:0.308899"
     d="M 357.77959,107.60288 V 74.859505 H 461.5699 565.36022 v 32.743375 32.74337 H 461.5699 357.77959 Z m 206.96283,0 V 75.477303 H 461.5699 358.39738 v 32.125577 32.12558 H 461.5699 564.74242 Z m -110.58611,21.00519 v -6.178 h 7.41359 7.41359 v 6.178 6.17799 h -7.41359 -7.41359 z m 14.20939,0 v -5.5602 h -6.7958 -6.79579 v 5.5602 5.56019 h 6.79579 6.7958 z m -8.6492,0.17268 c 0,-1.0943 0.14189,-2.07731 0.3153,-2.18449 0.36226,-0.22388 3.13389,1.39343 3.31402,1.9338 0.12423,0.37273 -2.56293,2.2241 -3.2432,2.23444 -0.26954,0.004 -0.38612,-0.59486 -0.38612,-1.98375 z m -12.66488,-10.64903 c -1.42438,-0.29603 -2.76509,-1.02172 -3.66238,-1.98235 -0.72783,-0.77919 -0.72783,-0.77919 0.11385,-1.88275 0.46294,-0.60695 0.90399,-1.10355 0.98011,-1.10355 0.0761,0 0.5925,0.34637 1.14751,0.7697 2.56319,1.95503 5.75973,1.02019 5.73564,-1.67741 -0.0215,-2.41251 -2.38154,-3.48606 -5.13467,-2.33573 -0.60992,0.25484 -1.14257,0.46335 -1.18366,0.46335 -0.0411,0 -0.42663,-0.52127 -0.85675,-1.15837 -0.78204,-1.15838 -0.78204,-1.15838 -0.26936,-4.71074 l 0.51266,-3.55234 4.86085,-0.0851 4.86086,-0.0851 v 1.55234 1.55234 h -3.55236 c -3.47673,0 -3.55243,0.0148 -3.55656,0.69503 -0.002,0.38225 -0.0899,1.01497 -0.19465,1.40602 -0.18511,0.69112 -0.14708,0.70524 1.36003,0.50532 5.38148,-0.71388 8.71405,5.03054 5.43382,9.36636 -1.35029,1.78479 -4.19646,2.76139 -6.59498,2.26291 z m 10.98846,-0.20229 c -1.8173,-1.8173 0.32705,-4.79485 2.45092,-3.40324 1.04994,0.68795 1.09912,2.69593 0.0835,3.40732 -0.87857,0.61537 -1.9166,0.6137 -2.53439,-0.004 z m 10.2512,0.0455 c -1.79529,-0.64074 -2.60901,-1.29333 -3.49254,-2.80096 -1.77506,-3.02893 -1.73617,-8.60232 0.0806,-11.54267 2.06664,-3.3448 6.91433,-4.097273 9.84109,-1.52754 1.44173,1.26585 2.19909,2.81388 2.59783,5.30994 0.38406,2.4041 -0.005,5.49701 -0.91443,7.28083 -1.54204,3.02267 -4.96103,4.40517 -8.11252,3.2804 z m 4.23234,-3.7466 c 1.51444,-1.63411 1.82469,-6.70613 0.54431,-8.89845 -1.07102,-1.83385 -3.10826,-2.16827 -4.61063,-0.75686 -1.98667,1.86638 -1.69575,8.86388 0.41965,10.09351 1.08379,0.62996 2.85385,0.41727 3.64667,-0.4382 z m 11.83044,3.7466 c -1.79529,-0.64074 -2.609,-1.29333 -3.49253,-2.80096 -1.77506,-3.02893 -1.73617,-8.60232 0.0806,-11.54267 2.06664,-3.3448 6.91433,-4.097273 9.84109,-1.52754 1.44173,1.26585 2.19909,2.81388 2.59783,5.30994 0.38406,2.4041 -0.005,5.49701 -0.91443,7.28083 -1.54205,3.02267 -4.96103,4.40517 -8.11252,3.2804 z m 4.23235,-3.7466 c 1.51444,-1.63411 1.82469,-6.70613 0.54431,-8.89845 -1.07102,-1.83385 -3.10826,-2.16827 -4.61063,-0.75686 -1.98667,1.86638 -1.69575,8.86388 0.41964,10.09351 1.0838,0.62996 2.85386,0.41727 3.64668,-0.4382 z m -58.87619,2.95993 c -0.17588,-0.50451 -0.31935,-1.00141 -0.31881,-1.10422 6.1e-4,-0.10281 1.39137,-1.75222 3.09076,-3.66537 4.8223,-5.42888 5.40672,-6.56481 4.06685,-7.9047 -0.91524,-0.91522 -2.06482,-0.77757 -3.2247,0.38614 -0.55033,0.55216 -1.06356,1.19524 -1.14049,1.42907 -0.11183,0.33993 -0.39627,0.29437 -1.41873,-0.22725 -0.70337,-0.35883 -1.357,-0.77887 -1.45252,-0.93343 -0.0956,-0.15456 0.27731,-0.9479 0.8285,-1.76297 2.64228,-3.907243 8.15027,-3.921832 10.08148,-0.0267 0.68577,1.38315 0.71207,1.61075 0.36522,3.16063 -0.37629,1.68139 -1.55613,3.49329 -4.36341,6.70095 l -1.28414,1.46728 h 3.2756 3.27559 v 1.69894 1.69895 h -5.73072 c -5.73071,0 -5.73071,0 -6.05048,-0.91731 z m 28.32986,-8.52573 c -1.8173,-1.8173 0.32705,-4.79484 2.45092,-3.40324 1.04994,0.68795 1.09912,2.69593 0.0835,3.40733 -0.87857,0.61537 -1.9166,0.6137 -2.53439,-0.004 z M 428.51763,92.293753 c 0,-1.717596 0,-1.717596 1.15837,-1.621723 1.00698,0.08334 1.17119,0.20736 1.25646,0.948896 0.0845,0.735419 -0.0325,0.879153 -0.84948,1.042538 -0.65318,0.130637 -0.94755,0.369443 -0.94755,0.768698 0,0.318553 -0.139,0.579187 -0.3089,0.579187 -0.16989,0 -0.3089,-0.772918 -0.3089,-1.717596 z m 1.79459,-0.676377 c -0.0572,-0.297317 -0.3088,-0.540575 -0.55899,-0.540575 -0.2502,0 -0.50174,0.243258 -0.559,0.540575 -0.073,0.379282 0.0938,0.540575 0.559,0.540575 0.46524,0 0.63204,-0.161293 0.55899,-0.540575 z m 1.30639,1.79855 c -0.63918,-1.194303 0.65377,-2.51138 1.84142,-1.875775 0.68501,0.366612 0.82144,1.526197 0.24712,2.100518 -0.56679,0.566781 -1.73204,0.44139 -2.08854,-0.224743 z m 1.78052,-0.753562 c -0.11302,-0.787996 -1.10129,-1.055137 -1.36465,-0.36886 -0.24428,0.636615 0.41306,1.422474 1.00112,1.196818 0.25305,-0.09711 0.41532,-0.466693 0.36353,-0.827958 z m 1.33716,0.226638 c -0.0342,-1.072919 0.0678,-1.305147 0.63828,-1.454346 0.37343,-0.09766 0.82986,-0.05232 1.01429,0.100754 0.18743,0.155551 0.52278,0.162455 0.7603,0.01566 0.77047,-0.476168 1.25326,0.0083 1.25326,1.257738 0,0.661403 -0.139,1.20255 -0.3089,1.20255 -0.16989,0 -0.30889,-0.498101 -0.30889,-1.10689 0,-1.395703 -0.7292,-1.289347 -0.86905,0.126755 -0.12625,1.278382 -0.60907,1.262716 -0.73312,-0.02379 -0.13407,-1.390576 -0.9645,-1.337772 -1.21449,0.07723 -0.19102,1.081149 -0.19102,1.081149 -0.23168,-0.195647 z m 4.65461,0.751667 c -0.57433,-0.574321 -0.4379,-1.733906 0.24712,-2.100518 1.18764,-0.635605 2.48059,0.681472 1.84142,1.875775 -0.35651,0.666133 -1.52176,0.791524 -2.08854,0.224743 z m 1.60965,-1.288591 c -0.11254,-0.293346 -0.42884,-0.490185 -0.70282,-0.437419 -0.63797,0.12286 -0.84922,1.170826 -0.30398,1.507929 0.56553,0.34965 1.26598,-0.395114 1.0068,-1.07051 z m 1.3146,1.453338 c -0.11326,-0.113267 -0.20594,-0.59489 -0.20594,-1.070281 0,-0.885562 0.9548,-1.713897 1.55089,-1.345488 0.16638,0.102831 0.30251,-0.09925 0.30251,-0.449066 0,-0.349816 0.13901,-0.63603 0.3089,-0.63603 0.17162,0 0.30891,0.823734 0.30891,1.8534 0,1.853398 0,1.853398 -1.02967,1.853398 -0.56632,0 -1.12234,-0.09267 -1.2356,-0.205933 z m 1.49301,-1.051178 c 0,-0.873848 -0.90619,-1.188853 -1.20205,-0.41785 -0.22637,0.589893 0.35172,1.443574 0.86229,1.273383 0.18687,-0.06229 0.33976,-0.44728 0.33976,-0.855533 z m 1.76074,0.886431 c -0.57433,-0.574321 -0.4379,-1.733906 0.24711,-2.100518 1.18765,-0.635605 2.4806,0.681472 1.84143,1.875775 -0.35651,0.666133 -1.52176,0.791524 -2.08854,0.224743 z m 1.60965,-1.288591 c -0.11254,-0.293346 -0.42884,-0.490185 -0.70283,-0.437419 -0.63797,0.12286 -0.84921,1.170826 -0.30397,1.507929 0.56553,0.34965 1.26597,-0.395114 1.0068,-1.07051 z m 1.10866,0.459683 c 0,-1.034262 0.10649,-1.219934 0.77225,-1.347214 0.83625,-0.15986 1.06423,0.206361 0.30891,0.49621 -0.27087,0.103936 -0.46336,0.566804 -0.46336,1.114198 0,0.515017 -0.13901,0.936394 -0.3089,0.936394 -0.16989,0 -0.3089,-0.539815 -0.3089,-1.199588 z m 2.22408,0.828908 c -0.57432,-0.574321 -0.4379,-1.733906 0.24712,-2.100518 1.18764,-0.635605 2.4806,0.681472 1.84142,1.875775 -0.3565,0.666133 -1.52176,0.791524 -2.08854,0.224743 z m 1.60965,-1.288591 c -0.11254,-0.293346 -0.42883,-0.490185 -0.70283,-0.437419 -0.63795,0.12286 -0.84921,1.170826 -0.30397,1.507929 0.56554,0.34965 1.26597,-0.395114 1.0068,-1.07051 z m 2.65317,1.350371 c 0,-0.169894 0.139,-0.3089 0.3089,-0.3089 0.16989,0 0.30889,-0.494721 0.30889,-1.099379 0,-0.738424 -0.11456,-1.028567 -0.34896,-0.883702 -0.21181,0.130901 -0.29281,0.047 -0.20609,-0.213444 0.0786,-0.236018 0.37464,-0.474066 0.65789,-0.528997 0.41741,-0.08095 0.51497,0.156029 0.51497,1.251044 0,0.743005 0.1668,1.517724 0.37068,1.721598 0.2883,0.288307 0.15102,0.37068 -0.61781,0.37068 -0.54366,0 -0.98847,-0.139005 -0.98847,-0.3089 z m 9.71631,-0.449308 c -1.53221,-1.532203 -0.44649,-4.184188 1.71298,-4.184188 1.26991,0 2.4712,1.201281 2.4712,2.471198 0,1.269917 -1.20129,2.471198 -2.4712,2.471198 -0.60185,0 -1.23505,-0.280267 -1.71298,-0.758208 z m 2.90118,-0.09127 c 1.06262,-0.899152 1.15954,-2.082163 0.24547,-2.996228 -0.92253,-0.922537 -1.73343,-0.998997 -2.62187,-0.247219 -1.06263,0.899152 -1.15955,2.082162 -0.24547,2.996228 0.92253,0.922537 1.73343,0.998997 2.62187,0.247219 z m 5.748,0.09127 c -1.5322,-1.532203 -0.44649,-4.184188 1.71299,-4.184188 1.26992,0 2.4712,1.201281 2.4712,2.471198 0,1.269917 -1.20128,2.471198 -2.4712,2.471198 -0.60185,0 -1.23504,-0.280267 -1.71299,-0.758208 z m 2.9012,-0.09127 c 1.06261,-0.899152 1.15953,-2.082163 0.24546,-2.996228 -0.92252,-0.922537 -1.73342,-0.998997 -2.62187,-0.247219 -1.06262,0.899152 -1.15954,2.082162 -0.24548,2.996228 0.92254,0.922537 1.73344,0.998997 2.62189,0.247219 z m 5.74799,0.09127 c -1.5322,-1.532203 -0.44648,-4.184188 1.713,-4.184188 1.26991,0 2.4712,1.201281 2.4712,2.471198 0,1.269917 -1.20129,2.471198 -2.4712,2.471198 -0.60185,0 -1.23506,-0.280267 -1.713,-0.758208 z m 2.9012,-0.09127 c 1.06261,-0.899152 1.15953,-2.082163 0.24547,-2.996228 -0.92254,-0.922537 -1.73344,-0.998997 -2.62188,-0.247219 -1.06261,0.899152 -1.15953,2.082162 -0.24547,2.996228 0.92254,0.922537 1.73344,0.998997 2.62188,0.247219 z m 5.748,0.09127 c -1.5322,-1.532203 -0.44649,-4.184188 1.71298,-4.184188 1.26993,0 2.4712,1.201281 2.4712,2.471198 0,1.269917 -1.20127,2.471198 -2.4712,2.471198 -0.60184,0 -1.23504,-0.280267 -1.71298,-0.758208 z m 2.9012,-0.09127 c 1.06261,-0.899152 1.15953,-2.082163 0.24547,-2.996228 -0.92254,-0.922537 -1.73344,-0.998997 -2.62189,-0.247219 -1.06261,0.899152 -1.15953,2.082162 -0.24547,2.996228 0.92254,0.922537 1.73344,0.998997 2.62189,0.247219 z M 459.33038,92.55229 c 0.55216,-0.06852 1.45569,-0.06852 2.00785,0 0.55216,0.06852 0.10043,0.124586 -1.00393,0.124586 -1.10432,0 -1.55608,-0.05607 -1.00392,-0.124586 z m -3.13142,-7.93369 c -0.10269,-0.408954 -0.27159,-0.964973 -0.37543,-1.235598 -0.10388,-0.270626 -0.0443,-0.492047 0.13231,-0.492047 0.17662,0 0.41762,0.303995 0.53555,0.675546 0.207,0.652245 0.22904,0.655536 0.63861,0.09541 0.41503,-0.567581 0.43339,-0.567581 0.84841,0 0.40958,0.560126 0.4316,0.556835 0.63862,-0.09541 0.11788,-0.371551 0.33681,-0.675546 0.48642,-0.675546 0.28442,0 -0.22311,1.813381 -0.63609,2.272687 -0.13096,0.14566 -0.41074,-0.0577 -0.62171,-0.451906 -0.38359,-0.716743 -0.38359,-0.716743 -0.63646,-0.03316 -0.33136,0.895742 -0.777,0.869286 -1.01023,-0.05997 z m 3.72348,0.53762 c -0.46016,-0.460156 -0.19058,-1.942847 0.41186,-2.265265 1.29819,-0.694769 2.53122,1.052022 1.48272,2.100518 -0.39956,0.399565 -1.55895,0.500381 -1.89458,0.164747 z m 1.58657,-1.143052 c -0.0515,-0.358903 -0.31933,-0.695548 -0.59526,-0.748097 -0.62823,-0.119641 -1.01331,0.802058 -0.56219,1.345624 0.48228,0.581123 1.26826,0.175369 1.15745,-0.597527 z m 1.2965,0.149397 c 0,-1.034262 0.10649,-1.219934 0.77224,-1.347214 0.83626,-0.15986 1.06424,0.206361 0.3089,0.49621 -0.27086,0.103936 -0.46335,0.566805 -0.46335,1.114198 0,0.515017 -0.139,0.936394 -0.30889,0.936394 -0.1699,0 -0.3089,-0.539815 -0.3089,-1.199588 z m 2.24195,-0.65381 c 0.006,-1.61437 0.0448,-1.770838 0.19585,-0.798421 0.1675,1.078442 0.23375,1.153716 0.61179,0.695024 0.5886,-0.714199 1.05412,-0.64697 0.59631,0.08612 -0.31002,0.496399 -0.27539,0.710633 0.1997,1.2356 0.31611,0.349292 0.43121,0.635078 0.25579,0.635078 -0.17543,0 -0.492,-0.208507 -0.7035,-0.463349 -0.50745,-0.611443 -0.84945,-0.585617 -1.02267,0.07722 -0.0776,0.297317 -0.13766,-0.362957 -0.13327,-1.467273 z"
     id="path1782" />
</svg>
