<?xml version="1.0" encoding="UTF-8" standalone="no"?>
<svg
   data-name="Layer 1"
   width="989.31079"
   height="622.83575"
   viewBox="0 0 989.31079 622.83577"
   version="1.1"
   id="svg154"
   sodipodi:docname="premadetemplates.svg"
   inkscape:version="1.1 (c68e22c387, 2021-05-23)"
   xmlns:inkscape="http://www.inkscape.org/namespaces/inkscape"
   xmlns:sodipodi="http://sodipodi.sourceforge.net/DTD/sodipodi-0.dtd"
   xmlns="http://www.w3.org/2000/svg"
   xmlns:svg="http://www.w3.org/2000/svg">
  <defs
     id="defs158" />
  <sodipodi:namedview
     id="namedview156"
     pagecolor="#ffffff"
     bordercolor="#666666"
     borderopacity="1.0"
     inkscape:pageshadow="2"
     inkscape:pageopacity="0.0"
     inkscape:pagecheckerboard="0"
     showgrid="false"
     height="623.83575px"
     inkscape:zoom="12.099235"
     inkscape:cx="194.43378"
     inkscape:cy="587.35119"
     inkscape:window-width="2560"
     inkscape:window-height="1017"
     inkscape:window-x="1912"
     inkscape:window-y="-8"
     inkscape:window-maximized="1"
     inkscape:current-layer="svg154" />
  <path
     d="m 692.37948,157.22038 c 71.22,-38.107 161.61234,-18.12946 209.53632,49.43939 l -1.63132,1.15738 C 852.95238,141.08238 763.66533,121.35638 693.32165,158.98456 a 161.36236,161.36236 0 0 0 -17.27247,10.69161 C 603.7117,220.98256 586.60158,321.57356 637.908,393.911 l -1.63132,1.15739 C 584.3325,321.83169 601.65489,219.98857 674.89182,168.04482 a 163.74263,163.74263 0 0 1 17.48766,-10.82444 z"
     transform="translate(-105.34461,-138.08211)"
     fill="#e6e6e6"
     id="path2" />
  <path
     d="M 1069.6746,320.1036 835.42467,301.88 A 13.77366,13.77366 0 0 1 822.77518,287.09625 L 832.93027,173.2828 a 13.77366,13.77366 0 0 1 14.78367,-12.64957 l 234.24996,18.22364 a 13.77368,13.77368 0 0 1 12.6496,14.78376 L 1084.4584,307.454 a 13.77368,13.77368 0 0 1 -14.7838,12.6496 z"
     transform="translate(-105.34461,-138.08211)"
     fill="#e6e6e6"
     id="path4" />
  <path
     d="m 1014.3418,294.39144 q -2.6675,0 -5.3535,-0.2085 L 857.60061,282.4056 a 23.11885,23.11885 0 0 1 -21.25684,-24.84278 l 3.45215,-44.375 A 23.14622,23.14622 0 0 1 864.63967,191.93 l 195.76223,15.22949 a 23.147,23.147 0 0 1 21.2573,24.84327 67.63906,67.63906 0 0 1 -67.3174,62.38867 z"
     transform="translate(-105.34461,-138.08211)"
     fill="#ffffff"
     id="path6" />
  <path
     d="m 1055.718,242.43625 -191.90647,-14.9295 a 3.0536987,3.0536987 0 1 1 0.47369,-6.089 l 191.90648,14.9295 a 3.0536991,3.0536991 0 1 1 -0.4737,6.089 z"
     transform="translate(-105.34461,-138.08211)"
     fill="#e6e6e6"
     id="path8" />
  <path
     d="m 976.03336,248.34024 -113.15779,-8.80319 a 3.05384,3.05384 0 0 1 0.47372,-6.08928 l 113.15779,8.80323 a 3.05384,3.05384 0 1 1 -0.47372,6.08928 z"
     transform="translate(-105.34461,-138.08211)"
     fill="#e6e6e6"
     id="path10" />
  <path
     d="M 1000.9604,262.38258 861.93966,251.56736 a 3.05384,3.05384 0 1 1 0.47372,-6.08928 l 139.02072,10.81522 a 3.05384,3.05384 0 0 1 -0.4737,6.08928 z"
     transform="translate(-105.34461,-138.08211)"
     fill="#e6e6e6"
     id="path12" />
  <path
     d="M 1053.9996,474.60373 819.74956,456.38009 a 13.77365,13.77365 0 0 1 -12.64948,-14.78375 l 10.15508,-113.81345 a 13.77365,13.77365 0 0 1 14.78368,-12.64956 l 234.24996,18.22364 a 13.77367,13.77367 0 0 1 12.6496,14.78375 l -10.1551,113.81345 a 13.77367,13.77367 0 0 1 -14.7837,12.64956 z"
     transform="translate(-105.34461,-138.08211)"
     fill="#e6e6e6"
     id="path14" />
  <path
     d="m 998.60647,448.889 q -2.62939,0 -5.293,-0.20606 L 841.9258,436.9056 a 23.11892,23.11892 0 0 1 -21.25732,-24.84278 l 3.45215,-44.37451 A 23.12057,23.12057 0 0 1 848.96486,346.4305 L 1044.7266,361.66 a 23.11975,23.11975 0 0 1 21.2573,24.84326 67.72193,67.72193 0 0 1 -67.37743,62.38574 z"
     transform="translate(-105.34461,-138.08211)"
     fill="#ffffff"
     id="path16" />
  <path
     d="m 1040.0429,396.93638 -191.9065,-14.9295 a 3.0536991,3.0536991 0 1 1 0.4737,-6.089 l 191.9065,14.9295 a 3.0536991,3.0536991 0 1 1 -0.4737,6.089 z"
     transform="translate(-105.34461,-138.08211)"
     fill="#e6e6e6"
     id="path18" />
  <path
     d="M 960.35829,402.84038 847.2005,394.03719 a 3.05384,3.05384 0 1 1 0.47372,-6.08928 L 960.832,396.7511 a 3.05384,3.05384 0 0 1 -0.47372,6.08928 z"
     transform="translate(-105.34461,-138.08211)"
     fill="#e6e6e6"
     id="path20" />
  <path
     d="M 985.28534,416.88272 846.26459,406.0675 a 3.0538444,3.0538444 0 0 1 0.47372,-6.08929 l 139.02075,10.81522 a 3.0538444,3.0538444 0 0 1 -0.47372,6.08929 z"
     transform="translate(-105.34461,-138.08211)"
     fill="#e6e6e6"
     id="path22" />
  <path
     d="m 458.135,415.13921 a 56.086025,56.086025 0 1 1 102.62468,-45.28514 l -1.83021,0.80783 a 54.085461,54.085461 0 1 0 -98.96426,43.66948 z"
     transform="translate(-105.34461,-138.08211)"
     fill="#e6e6e6"
     id="path24" />
  <path
     d="m 1039.4907,727.92063 c 22.9003,-10.85156 39.9575,-32.68422 37.2967,-56.6777 -20.5446,16.636 -48.5154,25.92583 -77.39067,25.70351 -11.24655,-0.0865 -23.84207,-1.23067 -32.01476,5.08006 -5.08533,3.92661 -7.3792,10.16173 -7.66908,16.37586 -0.28975,6.21447 1.21678,12.50388 2.71475,18.71122 l -0.45553,1.47087 c 26.88789,1.71173 54.61829,0.18775 77.51859,-10.66382 z"
     transform="translate(-105.34461,-138.08211)"
     fill="#f2f2f2"
     id="path26" />
  <path
     d="m 1076.2235,671.18341 c -8.857,17.2822 -24.2128,31.68626 -43.2967,40.11746 a 45.81232,45.81232 0 0 1 -13.2059,3.88 29.85552,29.85552 0 0 1 -13.7365,-1.79559 c -4.1475,-1.48827 -8.23596,-3.42649 -12.63467,-4.01593 a 16.17055,16.17055 0 0 0 -12.21916,3.29446 c -4.06455,3.16085 -6.489,7.53482 -8.686,11.89824 -2.43933,4.84475 -4.88353,9.9179 -9.66006,13.21959 -0.57875,0.40006 0.22724,1.23208 0.80507,0.83268 8.31034,-5.74439 9.50957,-16.13182 16.113,-23.08921 a 15.53855,15.53855 0 0 1 12.49156,-5.22171 c 4.489,0.331 8.70666,2.3266 12.89446,3.86493 a 32.04047,32.04047 0 0 0 13.3991,2.19848 42.98153,42.98153 0 0 0 13.3669,-3.39871 92.24419,92.24419 0 0 0 25.2908,-15.73654 86.23782,86.23782 0 0 0 20.2121,-25.65829 c 0.3059,-0.597 -0.8302,-0.98291 -1.1341,-0.38984 z"
     transform="translate(-105.34461,-138.08211)"
     fill="#ffffff"
     id="path28" />
  <path
     d="m 1039.3196,708.86534 a 17.93179,17.93179 0 0 0 20.1605,5.12463 c 0.6665,-0.28043 0.1223,-1.25709 -0.5451,-0.97629 a 16.60083,16.60083 0 0 1 -18.7458,-4.80044 c -0.4683,-0.56966 -1.3353,0.0857 -0.8696,0.65216 z"
     transform="translate(-105.34461,-138.08211)"
     fill="#ffffff"
     id="path30" />
  <path
     d="m 1007.9986,714.37964 a 24.11262,24.11262 0 0 1 10.3702,-16.81256 c 0.577,-0.402 -0.2288,-1.23415 -0.8051,-0.83268 a 25.07152,25.07152 0 0 0 -10.7494,17.51756 c -0.082,0.66961 1.1028,0.79365 1.1843,0.12763 z"
     transform="translate(-105.34461,-138.08211)"
     fill="#ffffff"
     id="path32" />
  <path
     d="m 1064.0962,689.31041 a 8.15249,8.15249 0 0 1 -3.1433,-7.28685 c 0.092,-0.66765 -1.0933,-0.791 -1.1842,-0.12762 a 9.12727,9.12727 0 0 0 3.4578,8.06664 0.67753,0.67753 0 0 0 0.8374,0.0903 0.48571,0.48571 0 0 0 0.032,-0.74239 z"
     transform="translate(-105.34461,-138.08211)"
     fill="#ffffff"
     id="path34" />
  <path
     d="m 1001.2322,620.51286 c -0.071,0.41446 -0.1412,0.82893 -0.2207,1.24687 a 90.55831,90.55831 0 0 1 -4.47186,16.28874 c -0.14668,0.4106 -0.30248,0.82425 -0.46248,1.22926 a 98.17129,98.17129 0 0 1 -22.51731,33.98768 103.18621,103.18621 0 0 1 -12.87774,10.77059 c -6.38133,4.51567 -13.74629,8.92742 -17.78464,15.01126 a 16.1598,16.1598 0 0 0 -1.14751,1.96529 l 18.194,36.81186 c 0.0868,0.0686 0.16484,0.14051 0.25186,0.20949 l 0.6536,1.494 c 0.25292,-0.15279 0.51109,-0.31635 0.764,-0.46915 0.14717,-0.088 0.29032,-0.18426 0.43749,-0.27232 0.0968,-0.0613 0.1935,-0.123 0.28531,-0.17307 0.0323,-0.0203 0.0644,-0.041 0.0877,-0.0583 0.0917,-0.0501 0.17024,-0.10572 0.25292,-0.15279 q 2.16942,-1.36595 4.3223,-2.76552 c 0.009,-0.003 0.009,-0.003 0.0142,-0.0143 10.91315,-7.13595 21.17708,-15.1996 29.60986,-24.50316 0.2536,-0.28 0.51653,-0.56259 0.7618,-0.85943 a 91.84625,91.84625 0 0 0 10.0289,-13.49087 78.98494,78.98494 0 0 0 4.2621,-8.07457 65.1906,65.1906 0 0 0 5.6723,-22.69122 c 1.0276,-15.71224 -3.6333,-31.95906 -15.2209,-44.53654 -0.2967,-0.3215 -0.5894,-0.6353 -0.8952,-0.95388 z"
     transform="translate(-105.34461,-138.08211)"
     fill="#f2f2f2"
     id="path36" />
  <path
     d="m 1000.7669,620.76382 c 5.0678,19.43377 3.3217,39.9302 -5.25891,57.37036 a 36.00411,36.00411 0 0 1 -7.26062,10.41074 24.3021,24.3021 0 0 1 -11.4999,5.88283 c -4.11271,0.97374 -8.4857,1.534 -12.178,3.40551 a 12.838,12.838 0 0 0 -6.91826,9.38211 c -0.9034,4.8723 0.24234,9.88941 1.55126,14.775 1.45329,5.42445 3.05755,11.04523 1.71645,16.42093 -0.16249,0.65134 1.00417,0.92258 1.16643,0.27221 2.33328,-9.35281 -3.80049,-18.80987 -3.56624,-28.27134 0.10931,-4.4149 1.71789,-8.71712 5.81755,-11.16368 3.58494,-2.13945 8.09355,-2.72068 12.27028,-3.67364 a 26.33537,26.33537 0 0 0 11.52,-5.35928 33.61457,33.61457 0 0 0 7.707,-10.08933 78.61676,78.61676 0 0 0 8.28236,-26.98289 86.81522,86.81522 0 0 0 -2.2363,-32.66037 c -0.1751,-0.67129 -1.2869,-0.38614 -1.113,0.28081 z"
     transform="translate(-105.34461,-138.08211)"
     fill="#ffffff"
     id="path38" />
  <path
     d="m 998.64545,672.62178 c 7.48465,2.3447 15.42475,-0.46045 18.56305,-6.52266 0.3092,-0.59721 -0.7594,-1.13218 -1.069,-0.53415 -2.94,5.67916 -10.2879,8.2266 -17.28438,6.03476 -0.73629,-0.23064 -0.94174,0.79267 -0.20965,1.022 z"
     transform="translate(-105.34461,-138.08211)"
     fill="#ffffff"
     id="path40" />
  <path
     d="m 978.92853,694.18533 a 25.60135,25.60135 0 0 1 -3.6169,-19.85134 c 0.15986,-0.652 -1.00678,-0.92345 -1.16642,-0.27221 a 26.64736,26.64736 0 0 0 3.81029,20.65373 c 0.39196,0.61216 1.36287,0.0787 0.97303,-0.53018 z"
     transform="translate(-105.34461,-138.08211)"
     fill="#ffffff"
     id="path42" />
  <path
     d="m 1003.9581,642.67736 a 10.05858,10.05858 0 0 1 -7.28612,-4.486 c -0.38345,-0.61569 -1.354,-0.0814 -0.973,0.53019 a 11.271,11.271 0 0 0 8.04952,4.97786 c 0.3221,0.0387 0.6227,-0.0747 0.688,-0.37494 a 0.58607,0.58607 0 0 0 -0.4784,-0.64711 z"
     transform="translate(-105.34461,-138.08211)"
     fill="#ffffff"
     id="path44" />
  <path
     d="m 1039.8555,466.54817 -13.9186,-74.09639 -27.32422,-35.96478 -20.24955,13.239 c 2.86135,15.51933 24.50547,44.49126 24.50547,44.49126 l 19.1843,57.30437 c -0.077,0.29793 -0.1476,0.59857 -0.1993,0.90759 a 10.68681,10.68681 0 1 0 18.0019,-5.881 z"
     transform="translate(-105.34461,-138.08211)"
     fill="#ffb8b8"
     id="path46" />
  <path
     d="m 978.907,377.55474 22.9251,-18.60728 0.043,-0.0984 c 4.288,-9.71624 -5.23202,-26.37676 -13.97366,-38.64189 a 19.59609,19.59609 0 0 0 -26.22333,-5.29961 v 0 a 19.63933,19.63933 0 0 0 -9.13107,18.613 l 1.92816,18.562 z"
     transform="translate(-105.34461,-138.08211)"
     fill="#3f3d56"
     id="path48" />
  <polygon
     points="770.029,549.384 792.542,549.385 792.539,608.221 777.285,608.22 "
     fill="#ffb8b8"
     id="polygon50" />
  <path
     d="m 901.77481,741.32258 -4.29344,-1.6e-4 -16.76237,-6.81684 -8.98411,6.8158 h -10e-4 a 19.14478,19.14478 0 0 0 -19.14379,19.14351 v 0.62211 l 49.184,0.002 z"
     transform="translate(-105.34461,-138.08211)"
     fill="#2f2e41"
     id="path52" />
  <polygon
     points="837.712,549.384 860.225,549.385 860.222,608.221 844.968,608.22 "
     fill="#ffb8b8"
     id="polygon54" />
  <path
     d="m 969.458,741.32258 -4.29344,-1.6e-4 -16.76237,-6.81684 -8.98411,6.8158 h -10e-4 A 19.14478,19.14478 0 0 0 920.273,760.46489 v 0.62211 l 49.184,0.002 z"
     transform="translate(-105.34461,-138.08211)"
     fill="#2f2e41"
     id="path56" />
  <path
     d="m 988.82571,492.87747 c 0,0 1.78114,21.37363 -2.6717,41.85669 -4.45284,20.48306 -4.45284,78.17012 -4.45284,78.17012 l -9.79624,112.4114 -29.38874,-2.6717 -8.01511,-187.9098 -28.49817,63.23031 2.67171,8.90568 -3.55877,2.22642 c 0,0 2.6682,17.36607 0.88706,17.36607 -1.78114,0 -6.234,2.6717 -6.234,2.6717 l 3.56227,91.72848 -30.2793,-0.89057 -10.68679,-129.13227 11.57738,-73.91712 0.89057,-14.24909 4.00756,0.16476 2.0406,-5.95345 3.74809,-10.24153 z"
     transform="translate(-105.34461,-138.08211)"
     fill="#2f2e41"
     id="path58" />
  <path
     d="m 990.36505,497.36684 0.15872,-0.22264 c 8.47691,-11.86786 -4.27238,-40.386 -6.19528,-44.52013 l 8.099,-2.62822 -1.82375,-15.50275 -0.864,-6.91146 6.19005,-6.19006 0.0174,-0.15437 3.56227,-31.16987 5.17944,-20.70271 a 45.45157,45.45157 0 0 0 -12.90062,-44.04788 l -11.97222,-11.28821 -14.55,-21.52881 h -23.4635 l -8.04511,15.19618 A 34.19883,34.19883 0 0 0 907.297,342.6124 l 1.82332,39.85508 -7.138,49.62306 -0.004,8.98047 -8.03291,8.92742 1.75417,8.77044 -6.11352,2.62 -2.69953,12.59666 c -1.11712,1.47414 -8.49083,11.306 -8.49083,13.99383 0,0.40354 0.29787,0.7936 0.93709,1.22633 5.0251,3.40268 32.79968,10.3398 45.09239,5.42081 13.09413,-5.23557 65.14537,2.61865 65.6698,2.69866 z"
     transform="translate(-105.34461,-138.08211)"
     fill="#3f3d56"
     id="path60" />
  <circle
     cx="845.15875"
     cy="116.39341"
     r="31.074459"
     fill="#ffb8b8"
     id="circle64" />
  <path
     d="m 947.52645,286.05309 a 84.51553,84.51553 0 0 0 14.346,-1.37542 c 4.68679,-1.07973 15.02744,-9.07571 17.84571,-13.79946 v 0 c 2.09379,-3.50965 3.3505,-8.9383 4.03626,-12.87409 a 37.77917,37.77917 0 0 0 -7.37934,-29.8114 11.93566,11.93566 0 0 0 -4.92552,-3.98885 c -0.17437,-0.0631 -0.35356,-0.11828 -0.53442,-0.16481 a 14.72657,14.72657 0 0 1 -7.44025,-4.34241 12.14424,12.14424 0 0 0 -1.24975,-1.22149 18.13939,18.13939 0 0 0 -7.66375,-3.60358 c -4.52853,-1.08756 -11.00643,0.27527 -19.25331,4.05408 -4.14323,1.89855 -8.74174,1.3689 -12.28618,0.69532 a 1.15375,1.15375 0 0 0 -1.07625,0.40006 8.14428,8.14428 0 0 1 -5.47647,2.34861 c -1.25845,0.0878 -2.53516,1.86637 -4.07409,4.18237 -0.34918,0.52573 -0.75663,1.1393 -1.05233,1.5137 l -0.0591,-0.70315 -0.69227,0.804 a 9.88285,9.88285 0 0 0 4.87594,15.98064 19.27275,19.27275 0 0 0 3.891,0.51747 c 0.7949,0.0509 1.6172,0.10351 2.40688,0.21961 a 14.9001,14.9001 0 0 1 11.31824,9.3801 3.89666,3.89666 0 0 0 5.92827,1.73939 6.4381,6.4381 0 0 1 5.837,-1.21931 4.27377,4.27377 0 0 1 1.94377,2.09335 5.56976,5.56976 0 0 0 2.17641,2.41036 c 3.23527,1.5637 3.64359,8.85047 2.6539,14.95919 -0.95405,5.88827 -3.02958,10.1837 -5.04727,10.44547 -1.55328,0.20134 -1.72852,0.31657 -1.83419,0.5949 l -0.0944,0.24917 0.1809,0.22612 a 6.36358,6.36358 0 0 0 2.69864,0.29006 z"
     transform="translate(-105.34461,-138.08211)"
     fill="#2f2e41"
     id="path66" />
  <circle
     cx="500.67444"
     cy="246.35355"
     r="61.78912"
     fill="#522b47"
     id="circle68" />
  <path
     d="m 940.369,375.24046 -20.3817,-13.03455 c -12.97884,8.9771 -30.519,40.60269 -30.519,40.60269 l -44.39206,41.01177 a 10.6812,10.6812 0 1 0 11.83816,14.19473 l 61.86788,-43.0998 z"
     transform="translate(-105.34461,-138.08211)"
     fill="#ffb8b8"
     id="path70" />
  <path
     d="m 938.426,380.52937 13.57464,-32.57965 -4.90987,-18.00443 a 19.64141,19.64141 0 0 0 -15.241,-14.05514 v 0 a 19.59507,19.59507 0 0 0 -22.536,14.4183 c -3.718,14.59609 -6.57316,33.57109 0.93622,41.08048 l 0.0761,0.0761 z"
     transform="translate(-105.34461,-138.08211)"
     fill="#3f3d56"
     id="path72" />
  <path
     d="m 147.90252,743.06654 c -26.572,-13.63868 -45.85058,-39.99525 -41.82,-68.16091 23.58089,20.36491 56.18438,32.35326 90.20862,33.1697 13.252,0.318 28.13265,-0.5594 37.52464,7.18008 5.844,4.81557 8.31341,12.2464 8.42284,19.57765 0.10923,7.33162 -1.90037,14.68452 -3.89684,21.941 l 0.48169,1.74977 c -31.73862,1.01232 -64.34895,-1.81862 -90.92095,-15.45729 z"
     transform="translate(-105.34461,-138.08211)"
     fill="#f2f2f2"
     id="path74" />
  <path
     d="m 106.749,674.85654 c 9.78835,20.6897 27.34009,38.23161 49.50665,48.87653 a 53.99407,53.99407 0 0 0 15.412,5.06391 35.18759,35.18759 0 0 0 16.24905,-1.60229 c 4.94152,-1.59835 9.83016,-3.72892 15.03406,-4.259 a 19.05908,19.05908 0 0 1 14.27151,4.33727 c 4.67007,3.87534 7.36282,9.11855 9.788,14.34087 2.69268,5.79838 5.38257,11.866 10.88616,15.93388 0.66683,0.49288 -0.31371,1.443 -0.97953,0.95083 -9.5753,-7.07745 -10.6001,-19.35889 -18.11941,-27.80158 -3.50865,-3.93951 -8.45889,-6.872 -14.52043,-6.61784 -5.30055,0.22228 -10.34356,2.41565 -15.3344,4.07146 A 37.76415,37.76415 0 0 1 173.076,730.24 a 50.65818,50.65818 0 0 1 -15.61961,-4.50294 108.72177,108.72177 0 0 1 -29.20568,-19.4826 101.64173,101.64173 0 0 1 -22.85228,-30.981 c -0.33812,-0.71469 1.01467,-1.1269 1.35059,-0.41687 z"
     transform="translate(-105.34461,-138.08211)"
     fill="#ffffff"
     id="path76" />
  <path
     d="m 148.81575,720.62519 c -5.82511,6.64383 -16.07736,8.89023 -23.94112,5.284 -0.77469,-0.35527 -0.0971,-1.48547 0.67867,-1.12973 a 19.56607,19.56607 0 0 0 22.26231,-4.955 c 0.573,-0.65358 1.5699,0.15088 1.00014,0.80073 z"
     transform="translate(-105.34461,-138.08211)"
     fill="#ffffff"
     id="path78" />
  <path
     d="m 185.5069,728.29093 a 28.41953,28.41953 0 0 0 -11.58861,-20.193 c -0.66466,-0.4951 0.31567,-1.44533 0.97953,-0.95082 a 29.54992,29.54992 0 0 1 12.00892,21.03765 c 0.0715,0.79191 -1.32872,0.89375 -1.39984,0.10614 z"
     transform="translate(-105.34461,-138.08211)"
     fill="#ffffff"
     id="path80" />
  <path
     d="m 120.35841,696.6636 a 9.60878,9.60878 0 0 0 3.975,-8.46678 c -0.0829,-0.79 1.3175,-0.89095 1.39984,-0.10614 a 10.75763,10.75763 0 0 1 -4.37468,9.37364 0.79853,0.79853 0 0 1 -0.98984,0.075 0.57237,0.57237 0 0 1 -0.0103,-0.87577 z"
     transform="translate(-105.34461,-138.08211)"
     fill="#ffffff"
     id="path82" />
  <path
     d="m 196.9834,617.96571 c 0.0677,0.49089 0.13541,0.98179 0.21347,1.47707 a 106.73249,106.73249 0 0 0 4.65963,19.35562 c 0.15747,0.4892 0.32555,0.98231 0.4989,1.4654 a 115.70661,115.70661 0 0 0 25.2568,40.87947 121.61573,121.61573 0 0 0 14.76811,13.169 c 7.34877,5.55789 15.86012,11.03012 20.3902,18.34791 a 19.04593,19.04593 0 0 1 1.27841,2.35806 l -22.80781,42.686 c -0.10486,0.0775 -0.19942,0.15938 -0.30453,0.23736 l -0.82577,1.73554 c -0.29224,-0.18942 -0.59026,-0.39177 -0.8825,-0.58118 -0.17009,-0.10921 -0.3351,-0.22794 -0.50519,-0.33715 -0.11178,-0.0758 -0.22338,-0.15214 -0.32962,-0.21454 -0.0373,-0.0251 -0.0744,-0.0507 -0.10117,-0.0719 -0.10625,-0.0624 -0.19661,-0.13091 -0.29224,-0.18941 q -2.50464,-1.69013 -4.98851,-3.41929 c -0.0106,-0.004 -0.0106,-0.004 -0.0162,-0.0173 -12.58953,-8.8139 -24.3796,-18.69649 -33.96623,-29.97124 -0.28829,-0.33931 -0.58745,-0.68205 -0.86533,-1.04086 a 108.25169,108.25169 0 0 1 -11.31049,-16.26717 93.092,93.092 0 0 1 -4.71936,-9.67129 76.8352,76.8352 0 0 1 -5.83478,-26.94279 c -0.62378,-18.54784 5.47365,-37.51305 19.59394,-51.89693 0.3615,-0.36775 0.7181,-0.72649 1.09022,-1.09034 z"
     transform="translate(-105.34461,-138.08211)"
     fill="#f2f2f2"
     id="path84" />
  <path
     d="m 197.5222,618.27869 c -6.69582,22.70433 -5.40424,46.91492 4.05262,67.78041 a 42.4349,42.4349 0 0 0 8.16445,12.53534 28.64271,28.64271 0 0 0 13.32756,7.35961 c 4.80853,1.30069 9.93912,2.124 14.21891,4.46666 a 15.131,15.131 0 0 1 7.79955,11.31079 c 0.88226,5.7735 -0.65481,11.641 -2.3792,17.34743 -1.9146,6.33589 -4.01437,12.89744 -2.63528,19.28026 0.1671,0.77337 -1.21741,1.04929 -1.38425,0.27709 -2.39938,-11.105 5.17955,-22.01668 5.257,-33.17133 0.0361,-5.205 -1.69822,-10.33317 -6.43634,-13.36844 -4.14329,-2.65422 -9.43284,-3.50728 -14.3176,-4.78593 a 31.03922,31.03922 0 0 1 -13.3708,-6.74359 39.61775,39.61775 0 0 1 -8.70223,-12.17333 92.65975,92.65975 0 0 1 -8.74924,-32.096 102.3226,102.3226 0 0 1 3.85425,-38.39137 c 0.23129,-0.78428 1.53044,-0.4068 1.30065,0.37236 z"
     transform="translate(-105.34461,-138.08211)"
     fill="#ffffff"
     id="path86" />
  <path
     d="m 198.08462,679.44817 c -8.90469,2.48263 -18.15369,-1.1185 -21.62428,-8.37712 -0.3419,-0.71508 0.93694,-1.30536 1.2793,-0.58933 3.25134,6.80006 11.81221,10.07537 20.13617,7.75465 0.876,-0.24423 1.0798,0.969 0.20881,1.2118 z"
     transform="translate(-105.34461,-138.08211)"
     fill="#ffffff"
     id="path88" />
  <path
     d="m 220.50646,705.587 a 30.17415,30.17415 0 0 0 5.00219,-23.25039 c -0.16395,-0.77407 1.2205,-1.05023 1.38425,-0.27709 a 31.40706,31.40706 0 0 1 -5.26,24.18842 c -0.4846,0.7065 -1.60844,0.0417 -1.12647,-0.66094 z"
     transform="translate(-105.34461,-138.08211)"
     fill="#ffffff"
     id="path90" />
  <path
     d="m 192.94449,643.97434 a 11.85526,11.85526 0 0 0 8.75077,-5.01261 c 0.47471,-0.71094 1.59809,-0.0454 1.12647,0.66094 a 13.28423,13.28423 0 0 1 -9.66843,5.56346 c -0.38092,0.0336 -0.73079,-0.11132 -0.79653,-0.46735 a 0.69078,0.69078 0 0 1 0.58772,-0.74444 z"
     transform="translate(-105.34461,-138.08211)"
     fill="#ffffff"
     id="path92" />
  <polygon
     points="172.849,308.857 226.771,302.451 231.838,265.948 225.382,266.011 172.025,265.948 174.027,284.513 "
     fill="#ffb6b6"
     id="polygon94"
     style="fill:#ffccaa" />
  <polygon
     points="161.457,557.533 144.057,557.533 144.057,603.005 155.846,603.005 "
     fill="#ffb6b6"
     id="polygon96"
     style="fill:#ffccaa;fill-opacity:1" />
  <path
     d="m 245.55425,733.01228 18.8344,-1.12416 v 8.06948 l 17.90635,12.3668 a 5.0405,5.0405 0 0 1 -2.86417,9.18836 H 257.0078 l -3.86495,-7.98195 -1.50908,7.98195 h -8.45439 z"
     transform="translate(-105.34461,-138.08211)"
     fill="#2f2e41"
     id="path98" />
  <polygon
     points="227.677,557.533 210.278,557.533 210.278,603.005 222.067,603.005 "
     fill="#ffb6b6"
     id="polygon100"
     style="fill:#ffccaa;fill-opacity:1" />
  <path
     d="m 311.775,733.01228 18.8344,-1.12416 v 8.06948 l 17.9064,12.3668 a 5.0405,5.0405 0 0 1 -2.86418,9.18836 h -22.42311 l -3.865,-7.98195 -1.50907,7.98195 h -8.45434 z"
     transform="translate(-105.34461,-138.08211)"
     fill="#2f2e41"
     id="path102" />
  <path
     d="m 244.31517,701.87385 h 0.12816 l 2.26726,-73.93578 a 19.33336,19.33336 0 0 1 0.25367,-18.26966 l 0.3246,-0.58759 -0.84164,-3.90138 a 24.85032,24.85032 0 0 1 1.42011,-14.956 l 2.11513,-68.96837 c -7.55652,-48.97254 28.45558,-80.91057 28.45558,-80.91057 h 53.94661 l 11.58172,39.792 c 7.65652,74.595 6.26725,147.2855 -5.88257,217.71039 l 0.33123,0.1675 c 1.19267,0.41169 1.7042,2.06388 1.14285,3.6904 -0.56135,1.62652 -1.98335,2.61136 -3.176,2.19966 l -28.49,-0.99093 c -1.19267,-0.4116 -1.70439,-2.06389 -1.14285,-3.69041 0.56135,-1.62652 1.98335,-2.61125 3.176,-2.19966 l 1.93714,0.9798 -4.13125,-71.34523 0.45847,-13.03165 -0.94452,-14.78416 -4.367,-66.499 -16.52971,81.77506 -16.88428,88.57845 a 3.10592,3.10592 0 0 1 -2.0944,5.4082 h -23.05431 a 3.11556,3.11556 0 1 1 0,-6.23111 z"
     transform="translate(-105.34461,-138.08211)"
     fill="#2f2e41"
     id="path104" />
  <circle
     cx="181.44098"
     cy="142.01234"
     r="28.935431"
     fill="#ffb6b6"
     id="circle106"
     style="fill:#ffccaa" />
  <path
     d="m 159.992,413.77455 a 94.20838,94.20838 0 0 1 16.53187,-25.78973 63.66241,63.66241 0 0 0 -9.66723,30.87 48.78044,48.78044 0 0 0 6.60223,3.4533 63.262,63.262 0 0 0 21.63313,4.85988 94.39613,94.39613 0 0 1 20.2686,-36.03426 63.81439,63.81439 0 0 0 -9.71971,35.87685 99.92113,99.92113 0 0 0 24.34122,-5.21676 c 11.80849,-4.06211 23.27057,-10.12907 31.43682,-19.56535 8.838,-10.213 13.19395,-23.69045 14.6005,-37.12587 1.40655,-13.42491 0.084,-26.97583 -1.24907,-40.41125 -0.62976,-6.40279 4.70238,-13.77131 4.07262,-20.1741 h -0.41989 c -2.80253,-3.84173 -5.65752,-7.77789 -7.03255,-12.3333 -1.36459,-4.545 -1.00768,-9.90864 2.13074,-13.488 a 14.6545,14.6545 0 0 1 6.43431,-3.98863 c 0.231,-0.29387 0.48286,-0.57729 0.74527,-0.86072 a 59.84132,59.84132 0 0 1 16.53188,-12.36476 c -4.461,3.36931 -7.442,7.17952 -8.82753,11.11568 q 5.794,-1.2753 11.58809,-2.54011 a 55.81526,55.81526 0 0 1 4.07262,-3.90464 c 2.06777,-1.79492 2.75,-1.93138 5.2167,-3.62128 a 16.64307,16.64307 0 0 0 -4.50295,6.4238 c 4.96479,-1.24907 9.92958,-3.12791 12.51173,-7.4 4.28256,-7.06414 -0.80825,-16.59485 -7.91429,-20.81443 a 28.31593,28.31593 0 0 0 -32.88532,3.62128 c -10.276,-7.568 -24.908,-7.442 -36.33863,-1.78441 a 53.13391,53.13391 0 0 0 -18.95655,16.48992 74.14338,74.14338 0 0 1 8.58607,-0.59831 26.332,26.332 0 0 0 -11.2417,4.45048 77.432,77.432 0 0 0 -4.07262,7.127 q -1.21227,2.409 -2.28821,4.88086 c -4.398,10.01357 -7.26351,20.678 -10.234,31.21637 -3.46381,12.28084 -7.17952,24.6456 -13.66637,35.63539 a 80.03779,80.03779 0 0 1 -44.13747,35.21551 c -1.54292,13.88688 5.23769,27.46926 15.84969,36.77959 z"
     transform="translate(-105.34461,-138.08211)"
     fill="#2f2e41"
     id="path108" />
  <path
     d="m 315.92426,328.38 -5.61591,-2.10885 -7.08159,-11.45052 -25.22511,2.06119 -6.13119,12.27779 -14.77016,11.27954 6.45927,34.01838 10.03523,41.32187 67.17714,-8.39714 -0.071,-31.1064 c 0,0 12.13924,-24.576 -7.46982,-33.78483 z"
     transform="translate(-105.34461,-138.08211)"
     fill="#522b47"
     id="path110" />
  <path
     d="m 419.47117,436.28008 a 9.61207,9.61207 0 0 1 -12.99127,-6.96156 l -74.902,-45.32293 13.69075,-15.796 69.32122,49.51792 a 9.66415,9.66415 0 0 1 4.88129,18.56253 z"
     transform="translate(-105.34461,-138.08211)"
     fill="#ffb6b6"
     id="path112"
     style="fill:#ffccaa" />
  <path
     d="m 306.61946,362.50338 c 0,0 -3.57954,3.60157 5.4022,9.52372 7.19057,4.74113 39.26372,28.17035 50.63314,31.87613 a 7.55111,7.55111 0 0 0 5.03313,7.7697 l 10.29424,-22.622 c -2.22831,-5.17158 -5.79254,-3.97412 -7.66791,-2.80155 l -12.43279,-9.35012 -30.52978,-30.48581 -18.191,13.4406 z"
     transform="translate(-105.34461,-138.08211)"
     fill="#522b47"
     id="path114" />
  <path
     d="m 276.6753,245.14943 a 40.29481,40.29481 0 0 0 -4.848,35.41371"
     transform="translate(-105.34461,-138.08211)"
     fill="#fd6584"
     id="path116" />
  <path
     id="a4a87c0b-578c-404f-b0e7-3c25016717c2-111"
     data-name="Path 3114"
     d="m 236.66644,490.25426 a 2.79673,2.79673 0 0 0 -1.711,3.56047 l 39.05035,112.55038 a 2.79673,2.79673 0 0 0 3.56046,1.711 L 504.78648,528.3543 a 2.79674,2.79674 0 0 0 1.71078,-3.561 L 467.44692,412.24289 a 2.79677,2.79677 0 0 0 -3.561,-1.71078 z"
     transform="translate(-105.34461,-138.08211)"
     fill="#e6e6e6" />
  <path
     d="m 294.17873,591.83236 a 21.649,21.649 0 0 1 -20.396,-14.41016 l -21.44532,-60.67578 a 21.61166,21.61166 0 0 1 13.17383,-27.57813 L 380.3506,448.57943 a 86.06045,86.06045 0 0 1 109.69824,52.40332 21.61166,21.61166 0 0 1 -13.17384,27.57812 l -0.1665,-0.47168 0.1665,0.47168 -175.51512,62.03513 a 21.53409,21.53409 0 0 1 -7.18115,1.23636 z"
     transform="translate(-105.34461,-138.08211)"
     fill="#ffffff"
     id="path121" />
  <path
     id="e6660b72-17a8-4076-a000-8bf222be7673-112"
     data-name="Path 3117"
     d="m 446.46874,472.22655 -102.82823,36.07806 c -1.44882,0.50834 -3.24438,-0.85007 -4.0106,-3.03377 -0.76622,-2.1837 -0.21283,-4.36615 1.236,-4.87448 l 102.82823,-36.07807 c 1.44882,-0.50834 3.24438,0.85008 4.01062,3.03378 0.76624,2.1837 0.21354,4.36836 -1.23602,4.87448 z"
     transform="translate(-105.34461,-138.08211)"
     fill="#e6e6e6" />
  <path
     id="f689c0b7-f689-4c10-b0b9-25ad5f15d9dd-113"
     data-name="Path 3118"
     d="m 454.42209,494.896 -102.82824,36.0781 c -1.44882,0.50834 -3.24438,-0.85007 -4.0106,-3.03377 -0.76622,-2.1837 -0.21282,-4.36615 1.236,-4.87449 l 102.82824,-36.07806 c 1.44881,-0.50834 3.24438,0.85008 4.01062,3.03377 0.76624,2.18369 0.21279,4.36614 -1.23602,4.87445 z"
     transform="translate(-105.34461,-138.08211)"
     fill="#e6e6e6" />
  <path
     id="f731b694-f804-4551-a9ab-28894637a524-114"
     data-name="Path 3124"
     d="M 364.94882,583.573"
     transform="translate(-105.34461,-138.08211)"
     fill="#e6e6e6" />
  <path
     d="m 329.72689,520.63823 a 27.57806,27.57806 0 0 1 1.58375,9.697 26.82169,26.82169 0 0 1 -0.44634,4.50183 27.70611,27.70611 0 0 1 -45.32893,16.02119 q -0.56007,-0.47928 -1.09056,-0.98926 a 27.7,27.7 0 1 1 45.28208,-29.23076 z"
     transform="translate(-105.34461,-138.08211)"
     fill="#e4e4e4"
     id="path126" />
  <circle
     cx="199.41905"
     cy="390.72235"
     r="5.2952299"
     fill="#fd6584"
     id="circle128" />
  <path
     d="m 284.44484,549.869 c 1.35948,-3.15467 2.96615,-7.96821 6.688,-6.2159 1.83878,0.79715 5.13166,3.21913 6.46874,0.40231 l 10.46955,-21.916 a 3.40956,3.40956 0 0 1 4.62657,-1.54261 l 18.613,9.73844 a 26.82971,26.82971 0 0 1 -0.44633,4.50182 l -45.329,16.02119 z"
     transform="translate(-105.34461,-138.08211)"
     fill="#3f3d56"
     id="path130" />
  <path
     d="m 289.84809,485.14671 a 9.61206,9.61206 0 0 1 -4.72465,-13.96117 l -23.69584,-84.27919 20.79013,-2.17248 16.75488,83.52682 a 9.66415,9.66415 0 0 1 -9.12452,16.886 z"
     transform="translate(-105.34461,-138.08211)"
     fill="#ffb6b6"
     id="path132"
     style="fill:#ffccaa" />
  <path
     d="m 257.92214,340.64177 c 0,0 -5.07456,0.18231 -2.56621,10.64423 2.00814,8.37556 9.383,60.917 15.14909,71.39307 a 7.55112,7.55112 0 0 0 -1.63672,9.11163 l 22.9765,-9.47664 c 1.90826,-5.298 0.43056,-10.10815 -1.73982,-10.53406 l -2.68439,-15.323 -3.95609,-51.4044 -21.87656,-4.60775 z"
     transform="translate(-105.34461,-138.08211)"
     fill="#522b47"
     id="path134" />
  <path
     d="m 464.90167,562.39093 -31.77646,1.31613 a 4.50052,4.50052 0 0 1 -3.6021,-1.55491 4.408,4.408 0 0 1 -1.01706,-3.70669 86.53527,86.53527 0 0 0 -2.07505,-39.95275 4.47106,4.47106 0 0 1 2.208,-5.22671 c 13.0155,-6.76218 25.211,-7.105 36.24566,-1.02035 a 4.52655,4.52655 0 0 1 2.27165,3.06 141.5524,141.5524 0 0 1 2.04182,43.03244 4.49087,4.49087 0 0 1 -4.29646,4.05284 z"
     transform="translate(-105.34461,-138.08211)"
     fill="#522b47"
     id="path136" />
  <path
     d="m 463.5569,541.59329 -24.29669,1.00632 a 2.2811,2.2811 0 1 1 -0.1888,-4.55829 l 24.2967,-1.00633 a 2.2811039,2.2811039 0 1 1 0.18879,4.5583 z"
     transform="translate(-105.34461,-138.08211)"
     fill="#ffffff"
     id="path138" />
  <path
     d="m 463.22584,533.60014 -24.2967,1.00633 a 2.2811039,2.2811039 0 0 1 -0.18879,-4.5583 l 24.2967,-1.00633 a 2.2811039,2.2811039 0 0 1 0.18879,4.5583 z"
     transform="translate(-105.34461,-138.08211)"
     fill="#ffffff"
     id="path140" />
  <path
     d="m 1046.0589,313.81819 -31.5337,-4.13591 a 4.50052,4.50052 0 0 1 -3.2832,-2.14784 4.40807,4.40807 0 0 1 -0.3684,-3.826 86.53533,86.53533 0 0 0 4.786,-39.71929 4.47106,4.47106 0 0 1 3.069,-4.77228 c 13.98,-4.43743 26.0545,-2.69025 35.8865,5.19141 a 4.52652,4.52652 0 0 1 1.715,3.4033 141.55219,141.55219 0 0 1 -5.3453,42.748 4.49086,4.49086 0 0 1 -4.9259,3.25861 z"
     transform="translate(-105.34461,-138.08211)"
     fill="#522b47"
     id="path142" />
  <path
     d="m 1048.2896,293.09684 -24.111,-3.16237 a 2.2811014,2.2811014 0 1 1 0.5933,-4.52346 l 24.111,3.16237 a 2.2811014,2.2811014 0 1 1 -0.5933,4.52346 z"
     transform="translate(-105.34461,-138.08211)"
     fill="#ffffff"
     id="path144" />
  <path
     d="m 1049.3299,285.16478 -24.111,-3.16237 a 2.28111,2.28111 0 1 1 0.5933,-4.52347 l 24.111,3.16237 a 2.28111,2.28111 0 1 1 -0.5933,4.52347 z"
     transform="translate(-105.34461,-138.08211)"
     fill="#ffffff"
     id="path146" />
  <path
     d="m 626.019,374.93566 h -10.5 v -10.5 a 9.5,9.5 0 0 0 -19,0 v 10.5 h -10.5 a 9.5,9.5 0 0 0 0,19 h 10.5 v 10.5 a 9.5,9.5 0 0 0 19,0 v -10.5 h 10.5 a 9.5,9.5 0 0 0 0,-19 z"
     transform="translate(-105.34461,-138.08211)"
     fill="#ffffff"
     id="path148" />
  <circle
     cx="860.70941"
     cy="32.523331"
     r="10.01145"
     fill="#3f3d56"
     id="circle150" />
  <circle
     cx="245.7094"
     cy="315.52332"
     r="10.01145"
     fill="#3f3d56"
     id="circle152" />
</svg>
