<?xml version="1.0" encoding="utf-8"?>
<svg viewBox="1.178 278.101 1437.054 42.488" width="1437.054" height="42.488" xmlns="http://www.w3.org/2000/svg">
  <path fill="#55031A" fill-opacity="1" d="M -0.589 316.098 L 47.411 316.098 C 95.411 316.098 191.411 316.098 287.411 307.258 C 383.411 298.252 479.411 280.821 575.411 280.696 C 671.411 280.821 767.411 298.252 863.411 302.817 C 959.411 307.383 1055.411 298.252 1151.411 293.977 C 1247.411 289.537 1343.411 289.537 1391.411 289.537 L 1439.411 289.537 L 1439.411 355.941 L 1391.411 355.941 C 1343.411 355.941 1247.411 355.941 1151.411 355.941 C 1055.411 355.941 959.411 355.941 863.411 355.941 C 767.411 355.941 671.411 355.941 575.411 355.941 C 479.411 355.941 383.411 355.941 287.411 355.941 C 191.411 355.941 95.411 355.941 47.411 355.941 L -0.589 355.941 Z" style=""/>
</svg>