<?xml version="1.0" encoding="utf-8"?>
<svg viewBox="0 0 1439.411 50.147" width="1439.411" height="50.147" xmlns="http://www.w3.org/2000/svg">
  <path fill="#55031A" fill-opacity="1" d="M 0 13.635 L 40 16.196 C 80 18.661 160 23.926 240 18.732 C 320 13.635 400 -1.683 480 2.147 C 560 5.976 640 28.952 720 36.611 C 800 44.269 880 36.611 960 37.879 C 1040 39.243 1120 49.295 1200 49.367 C 1280 49.295 1360 39.243 1400 34.05 L 1440 28.952 L 1440 -17 L 1400 -17 C 1360 -17 1280 -17 1200 -17 C 1120 -17 1040 -17 960 -17 C 880 -17 800 -17 720 -17 C 640 -17 560 -17 480 -17 C 400 -17 320 -17 240 -17 C 160 -17 80 -17 40 -17 L 0 -17 Z" style=""/>
</svg>