{
  "asset": {
    "version": "2.0",
    "generator": "VECTARY"
  },
  "nodes": [
    {
      "translation": [
        0,
        0,
        0
      ],
      "scale": [
        1,
        1,
        1
      ],
      "rotation": [
        0,
        -1.1102230246251565e-16,
        0.7071067811865475,
        0.7071067811865476
      ],
      "name": "tomato - baked",
      "children": [
        1
      ]
    },
    {
      "translation": [
        0,
        0,
        0
      ],
      "scale": [
        210,
        210,
        210
      ],
      "rotation": [
        0.5,
        0.5,
        0.5,
        0.5
      ],
      "name": "Sphere.016",
      "children": [
        2,
        3,
        4
      ]
    },
    {
      "translation": [
        0,
        0,
        0
      ],
      "scale": [
        1,
        1,
        1
      ],
      "rotation": [
        0,
        0,
        0,
        1
      ],
      "name": "Buffer Layer",
      "mesh": 0
    },
    {
      "translation": [
        0,
        0,
        0
      ],
      "scale": [
        1,
        1,
        1
      ],
      "rotation": [
        0,
        0,
        0,
        1
      ],
      "name": "Sphere.016 1",
      "mesh": 1
    },
    {
      "translation": [
        0,
        0,
        0
      ],
      "scale": [
        1,
        1,
        1
      ],
      "rotation": [
        0,
        0,
        0,
        1
      ],
      "name": "Sphere.016",
      "mesh": 2
    },
    {
      "translation": [
        3.6976788399099063,
        4.79935463770119,
        -9.78898830828119
      ],
      "scale": [
        1,
        1,
        1
      ],
      "rotation": [
        0.02659874917276306,
        -0.9732218395911434,
        -0.1706421591483196,
        -0.151700398834264
      ],
      "name": "Camera",
      "camera": 0
    }
  ],
  "materials": [
    {
      "pbrMetallicRoughness": {
        "baseColorFactor": [
          0.012663720031582098,
          0.3111804990579844,
          0.0006381828421670219,
          1
        ],
        "metallicFactor": 0.68,
        "roughnessFactor": 0.9
      },
      "name": "Xena",
      "emissiveFactor": [
        0,
        0,
        0
      ],
      "extensions": {},
      "alphaMode": "OPAQUE",
      "doubleSided": false
    },
    {
      "pbrMetallicRoughness": {
        "baseColorFactor": [
          1,
          0.017936433339950226,
          0.017936433339950226,
          1
        ],
        "metallicFactor": 0.68,
        "roughnessFactor": 0.9
      },
      "name": "1texture.012",
      "emissiveFactor": [
        0,
        0,
        0
      ],
      "extensions": {},
      "alphaMode": "OPAQUE",
      "doubleSided": false
    },
    {
      "pbrMetallicRoughness": {
        "baseColorFactor": [
          0.012663720031582098,
          0.3111804990579844,
          0.0006381828421670219,
          1
        ],
        "metallicFactor": 0.68,
        "roughnessFactor": 0.9
      },
      "name": "1texture.011",
      "emissiveFactor": [
        0,
        0,
        0
      ],
      "extensions": {},
      "alphaMode": "OPAQUE",
      "doubleSided": false
    }
  ],
  "meshes": [
    {
      "primitives": [
        {
          "mode": 4,
          "attributes": {
            "POSITION": 1,
            "NORMAL": 2,
            "TEXCOORD_0": 3
          },
          "material": 0,
          "indices": 0
        }
      ]
    },
    {
      "primitives": [
        {
          "mode": 4,
          "attributes": {
            "POSITION": 5,
            "NORMAL": 6,
            "TEXCOORD_0": 7
          },
          "material": 1,
          "indices": 4
        }
      ]
    },
    {
      "primitives": [
        {
          "mode": 4,
          "attributes": {
            "POSITION": 9,
            "NORMAL": 10,
            "TEXCOORD_0": 11
          },
          "material": 2,
          "indices": 8
        }
      ]
    }
  ],
  "accessors": [
    {
      "bufferView": 0,
      "byteOffset": 0,
      "componentType": 5125,
      "count": 261,
      "type": "SCALAR"
    },
    {
      "bufferView": 1,
      "byteOffset": 0,
      "componentType": 5126,
      "count": 197,
      "max": [
        0.007062301505357027,
        0.00846441276371479,
        0.009080803021788597
      ],
      "min": [
        -0.00789943803101778,
        -0.008147216401994228,
        0.005431780591607094
      ],
      "type": "VEC3"
    },
    {
      "bufferView": 2,
      "byteOffset": 0,
      "componentType": 5126,
      "count": 197,
      "type": "VEC3"
    },
    {
      "bufferView": 3,
      "byteOffset": 0,
      "componentType": 5126,
      "count": 197,
      "type": "VEC2"
    },
    {
      "bufferView": 4,
      "byteOffset": 0,
      "componentType": 5125,
      "count": 591,
      "type": "SCALAR"
    },
    {
      "bufferView": 5,
      "byteOffset": 0,
      "componentType": 5126,
      "count": 421,
      "max": [
        0.009848075918853283,
        0.009848077781498432,
        0.007374259643256664
      ],
      "min": [
        -0.009848074987530708,
        -0.009848073124885559,
        -0.009288819506764412
      ],
      "type": "VEC3"
    },
    {
      "bufferView": 6,
      "byteOffset": 0,
      "componentType": 5126,
      "count": 421,
      "type": "VEC3"
    },
    {
      "bufferView": 7,
      "byteOffset": 0,
      "componentType": 5126,
      "count": 421,
      "type": "VEC2"
    },
    {
      "bufferView": 8,
      "byteOffset": 0,
      "componentType": 5125,
      "count": 132,
      "type": "SCALAR"
    },
    {
      "bufferView": 9,
      "byteOffset": 0,
      "componentType": 5126,
      "count": 80,
      "max": [
        0.0005464912974275649,
        0.0017044141422957182,
        0.01086483895778656
      ],
      "min": [
        -0.0015250211581587791,
        -0.000047786383220227435,
        0.006149183958768845
      ],
      "type": "VEC3"
    },
    {
      "bufferView": 10,
      "byteOffset": 0,
      "componentType": 5126,
      "count": 80,
      "type": "VEC3"
    },
    {
      "bufferView": 11,
      "byteOffset": 0,
      "componentType": 5126,
      "count": 80,
      "type": "VEC2"
    }
  ],
  "bufferViews": [
    {
      "buffer": 0,
      "byteOffset": 0,
      "byteLength": 1044,
      "target": 34963
    },
    {
      "buffer": 0,
      "byteOffset": 1044,
      "byteLength": 2364,
      "target": 34962
    },
    {
      "buffer": 0,
      "byteOffset": 3408,
      "byteLength": 2364,
      "target": 34962
    },
    {
      "buffer": 0,
      "byteOffset": 5772,
      "byteLength": 1576,
      "target": 34962
    },
    {
      "buffer": 0,
      "byteOffset": 7348,
      "byteLength": 2364,
      "target": 34963
    },
    {
      "buffer": 0,
      "byteOffset": 9712,
      "byteLength": 5052,
      "target": 34962
    },
    {
      "buffer": 0,
      "byteOffset": 14764,
      "byteLength": 5052,
      "target": 34962
    },
    {
      "buffer": 0,
      "byteOffset": 19816,
      "byteLength": 3368,
      "target": 34962
    },
    {
      "buffer": 0,
      "byteOffset": 23184,
      "byteLength": 528,
      "target": 34963
    },
    {
      "buffer": 0,
      "byteOffset": 23712,
      "byteLength": 960,
      "target": 34962
    },
    {
      "buffer": 0,
      "byteOffset": 24672,
      "byteLength": 960,
      "target": 34962
    },
    {
      "buffer": 0,
      "byteOffset": 25632,
      "byteLength": 640,
      "target": 34962
    }
  ],
  "cameras": [
    {
      "name": "Camera",
      "type": "perspective",
      "extras": {
        "targetDistance": 7.19788574511266
      },
      "perspective": {
        "aspectRatio": 1.8023809523809524,
        "yfov": 0.6108652381980153,
        "zfar": 293.50900921520264,
        "znear": 0.03159281651698968
      }
    }
  ],
  "scene": 0,
  "scenes": [
    {
      "nodes": [
        0,
        5
      ],
      "name": "Project Name"
    }
  ],
  "extensionsUsed": [
    "KHR_texture_transform"
  ],
  "buffers": [
    {
      "byteLength": 26272,
      "uri": "ProjectName.bin"
    }
  ]
}